<?xml version="1.0" encoding="utf-8"?>
<!-- Generator: Adobe Illustrator 28.0.0, SVG Export Plug-In . SVG Version: 6.00 Build 0)  -->
<svg version="1.1" id="レイヤー_1" xmlns="http://www.w3.org/2000/svg" xmlns:xlink="http://www.w3.org/1999/xlink" x="0px"
	 y="0px" viewBox="0 0 817.9 207.8" style="enable-background:new 0 0 817.9 207.8;" xml:space="preserve">
<style type="text/css">
	.st0{fill:#ED6C00;}
	.st1{fill-rule:evenodd;clip-rule:evenodd;fill:#ED6C00;}
</style>
<g>
	<g>
		<path d="M339.7,139.9h44L303.9,8.9h-41L183,139.9c0.3-0.3,44,1,44,1l17.9-31.7h23.2c13.7,0,24.8-11.2,24.8-24.8v-3.8h-31.9
			l21.3-37.9L339.7,139.9z"/>
		<path d="M716.3,8.7h-68.6h-25.3h-37.9v0.4c0,16.2,13.2,29.4,29.4,29.4h33.8c0.2,0,0.4,0,0.5,0h55.4c12.8,0,23.2,10.4,23.2,23.2
			v27.3c0,12.8-10.5,23.2-23.2,23.2h-81.2V60.9h-36.9v80.9h130.7c25,0,45.4-20.4,45.4-45.4V54.1C761.7,29,741.3,8.7,716.3,8.7z"/>
		<path d="M567.2,50.2V40c0-19.2-15.7-34.8-34.8-34.8h-62.6h-20.5h-59.4v12.1c0,6.6,5.4,12.1,12.1,12.1h67.8v0h52.4
			c9,0,16.4,7.4,16.4,16.4c0,9-7.4,16.4-16.4,16.4h-72.9h-23.4h-34.8v2.5V85v59.5h141.3c19.2,0,34.8-15.7,34.8-34.8V99.4
			c0-9.6-3.9-18.3-10.3-24.6C563.3,68.5,567.2,59.8,567.2,50.2z M538.6,106.8c0,9.5-7.7,17.2-17.2,17.2h-95.4V88.7h95.4
			c9.5,0,17.2,7.7,17.2,17.2V106.8z"/>
		<g>
			<path d="M218.8,198.2c-0.6,0-1.1-0.3-1.4-0.8c-0.3-0.5-0.3-1-0.1-1.5l12-28.6c0.3-0.7,0.8-1.1,1.6-1.1c0.7,0,1.2,0.4,1.5,1.1
				l12.1,28.6c0.2,0.5,0.2,1-0.1,1.5c-0.3,0.5-0.8,0.7-1.3,0.7c-0.3,0-0.6-0.1-0.9-0.2c-0.3-0.2-0.5-0.4-0.6-0.7l-11.3-27.3h1.3
				l-11.3,27.3c-0.1,0.3-0.3,0.6-0.6,0.7C219.5,198.2,219.2,198.2,218.8,198.2z M221.5,190.6l1.2-2.7h16.6l1.2,2.7H221.5z"/>
			<path d="M262.1,198.9c-2.5,0-4.7-0.5-6.6-1.4c-1.9-1-3.4-2.3-4.5-4c-1.1-1.7-1.6-3.6-1.6-5.8v-19.8c0-0.5,0.1-0.8,0.5-1.1
				c0.3-0.3,0.7-0.5,1.1-0.5c0.5,0,0.8,0.1,1.1,0.5c0.3,0.3,0.5,0.7,0.5,1.1v19.8c0,1.6,0.4,3,1.2,4.3c0.8,1.2,1.9,2.2,3.4,2.9
				c1.4,0.7,3.1,1,5,1c1.8,0,3.5-0.3,4.9-1c1.4-0.7,2.5-1.7,3.3-2.9c0.8-1.2,1.2-2.6,1.2-4.3v-19.8c0-0.5,0.1-0.8,0.5-1.1
				c0.3-0.3,0.7-0.5,1.1-0.5c0.5,0,0.9,0.1,1.2,0.5c0.3,0.3,0.4,0.7,0.4,1.1v19.8c0,2.2-0.5,4.1-1.6,5.8c-1.1,1.7-2.6,3-4.5,4
				C266.8,198.4,264.6,198.9,262.1,198.9z"/>
			<path d="M280.9,169.2c-0.4,0-0.8-0.1-1.1-0.4c-0.3-0.3-0.4-0.6-0.4-1c0-0.4,0.1-0.8,0.4-1.1c0.3-0.3,0.6-0.4,1.1-0.4h22.7
				c0.4,0,0.8,0.1,1.1,0.4c0.3,0.3,0.4,0.6,0.4,1.1c0,0.4-0.1,0.8-0.4,1c-0.3,0.3-0.6,0.4-1.1,0.4H280.9z M292.2,198.2
				c-0.4,0-0.8-0.2-1.1-0.5c-0.3-0.3-0.5-0.7-0.5-1.1v-30.4h3.2v30.4c0,0.4-0.2,0.8-0.5,1.1C293.1,198.1,292.7,198.2,292.2,198.2z"
				/>
			<path d="M324.6,198.7c-2.4,0-4.6-0.4-6.6-1.2c-2-0.8-3.7-2-5.2-3.4c-1.5-1.5-2.6-3.2-3.4-5.2c-0.8-2-1.2-4.2-1.2-6.6
				c0-2.3,0.4-4.5,1.2-6.5c0.8-2,1.9-3.7,3.4-5.2c1.5-1.5,3.2-2.6,5.2-3.4c2-0.8,4.2-1.2,6.6-1.2c2.3,0,4.5,0.4,6.5,1.2
				c2,0.8,3.7,2,5.2,3.4c1.5,1.5,2.6,3.2,3.4,5.2c0.8,2,1.2,4.2,1.2,6.5c0,2.4-0.4,4.6-1.2,6.6c-0.8,2-1.9,3.7-3.4,5.2
				c-1.5,1.5-3.2,2.6-5.2,3.4C329.1,198.2,326.9,198.7,324.6,198.7z M324.6,195.6c1.9,0,3.6-0.3,5.2-1c1.6-0.7,3-1.6,4.2-2.8
				c1.2-1.2,2.1-2.6,2.8-4.3c0.7-1.6,1-3.4,1-5.3c0-1.9-0.3-3.6-1-5.3s-1.6-3-2.8-4.3c-1.2-1.2-2.6-2.2-4.2-2.8
				c-1.6-0.7-3.4-1-5.2-1c-1.9,0-3.7,0.3-5.3,1c-1.6,0.7-3,1.6-4.2,2.8c-1.2,1.2-2.1,2.6-2.8,4.3c-0.7,1.6-1,3.4-1,5.3
				c0,1.9,0.3,3.7,1,5.3c0.7,1.6,1.6,3,2.8,4.3c1.2,1.2,2.6,2.2,4.2,2.8C320.9,195.3,322.7,195.6,324.6,195.6z"/>
			<path d="M349.3,198.2c-0.5,0-0.9-0.1-1.3-0.4c-0.3-0.3-0.5-0.7-0.5-1.2v-28.8c0-0.5,0.1-0.8,0.5-1.1c0.3-0.3,0.7-0.5,1.1-0.5h10
				c1.6,0,3.1,0.3,4.4,1c1.3,0.7,2.4,1.6,3.2,2.8c0.8,1.2,1.2,2.6,1.2,4.2c0,1.5-0.4,2.8-1.2,3.9c-0.8,1.1-1.8,2-3.1,2.6
				c1.8,0.5,3.3,1.4,4.4,2.8c1.1,1.4,1.7,3.1,1.7,5.1c0,1.9-0.4,3.5-1.3,4.9c-0.8,1.4-2,2.5-3.5,3.3c-1.5,0.8-3.2,1.2-5.1,1.2H349.3
				z M350.7,179.6h8.4c1.6,0,3-0.5,4.1-1.4c1.1-0.9,1.6-2.2,1.6-3.9c0-1.6-0.5-2.9-1.6-3.7c-1.1-0.8-2.4-1.3-4.1-1.3h-8.4V179.6z
				 M350.7,195.2h9.1c1.3,0,2.5-0.3,3.5-0.8c1-0.5,1.8-1.3,2.4-2.2c0.6-1,0.9-2.1,0.9-3.4c0-1.2-0.3-2.3-0.9-3.2
				c-0.6-0.9-1.4-1.6-2.4-2.1c-1-0.5-2.2-0.8-3.5-0.8h-9.1V195.2z"/>
			<path d="M374.2,198.2c-0.6,0-1.1-0.3-1.4-0.8c-0.3-0.5-0.3-1-0.1-1.5l12-28.6c0.3-0.7,0.8-1.1,1.6-1.1c0.7,0,1.2,0.4,1.5,1.1
				L400,196c0.2,0.5,0.2,1-0.1,1.5c-0.3,0.5-0.8,0.7-1.3,0.7c-0.3,0-0.6-0.1-0.9-0.2c-0.3-0.2-0.5-0.4-0.6-0.7l-11.3-27.3h1.3
				l-11.3,27.3c-0.1,0.3-0.3,0.6-0.6,0.7C374.8,198.2,374.5,198.2,374.2,198.2z M376.9,190.6l1.2-2.7h16.6l1.2,2.7H376.9z"/>
			<path d="M419.2,198.7c-2.2,0-4.3-0.4-6.2-1.3c-1.9-0.8-3.6-2-5.1-3.5c-1.5-1.5-2.6-3.3-3.4-5.2c-0.8-2-1.2-4.1-1.2-6.4
				c0-2.2,0.4-4.3,1.2-6.3c0.8-2,1.9-3.7,3.4-5.2c1.5-1.5,3.2-2.7,5.1-3.5s4-1.3,6.2-1.3c2,0,3.8,0.3,5.4,0.9
				c1.6,0.6,3.2,1.5,4.7,2.7c0.2,0.2,0.4,0.4,0.4,0.7c0,0.3,0,0.5-0.1,0.7c-0.1,0.2-0.3,0.4-0.5,0.5c-0.1,0.2-0.2,0.4-0.4,0.5
				c-0.2,0.1-0.5,0.1-0.8,0.1c-0.3,0-0.6-0.1-0.8-0.4c-1.1-0.9-2.2-1.6-3.5-2.1s-2.7-0.7-4.4-0.7c-1.8,0-3.4,0.4-5,1.1
				c-1.5,0.7-2.9,1.7-4.1,2.9c-1.2,1.2-2.1,2.6-2.8,4.3c-0.7,1.6-1,3.3-1,5.1c0,1.9,0.3,3.6,1,5.2c0.7,1.6,1.6,3,2.8,4.3
				c1.2,1.2,2.5,2.2,4.1,2.9c1.5,0.7,3.2,1,5,1c1.5,0,2.9-0.2,4.3-0.7c1.3-0.5,2.6-1.2,3.8-2.1c0.3-0.3,0.7-0.4,1-0.3
				c0.4,0.1,0.7,0.2,1,0.5c0.3,0.3,0.4,0.6,0.4,1.1c0,0.2,0,0.4-0.1,0.6c-0.1,0.2-0.2,0.4-0.3,0.6c-1.4,1.3-2.9,2.2-4.7,2.7
				C422.8,198.4,421,198.7,419.2,198.7z"/>
			<path d="M446.1,198.7c-1.7,0-3.4-0.3-4.9-0.8c-1.5-0.5-2.8-1.2-3.9-2.2c-1.1-0.9-1.9-2-2.5-3.2c-0.2-0.4-0.2-0.8,0-1.2
				c0.2-0.4,0.6-0.6,1-0.8c0.4-0.1,0.8-0.1,1.1,0.1c0.4,0.2,0.6,0.5,0.8,0.9c0.4,0.8,1,1.5,1.8,2.1c0.8,0.6,1.7,1.1,2.8,1.5
				c1.1,0.3,2.3,0.5,3.6,0.5c1.4,0,2.7-0.2,3.9-0.7c1.1-0.5,2-1.2,2.6-2.1c0.6-0.9,1-2,1-3.3c0-1.7-0.6-3.1-1.8-4.3
				c-1.2-1.2-3.2-2-5.8-2.3c-3.2-0.4-5.7-1.4-7.5-3c-1.8-1.6-2.7-3.6-2.7-5.9c0-1.7,0.4-3.1,1.3-4.3c0.9-1.2,2.1-2.2,3.7-2.8
				c1.6-0.7,3.3-1,5.4-1c1.5,0,2.9,0.2,4.1,0.7c1.2,0.5,2.3,1.1,3.2,1.9c0.9,0.8,1.7,1.6,2.2,2.6c0.3,0.4,0.4,0.9,0.3,1.3
				c-0.1,0.4-0.3,0.7-0.7,0.9c-0.4,0.2-0.8,0.2-1.2,0.1c-0.4-0.1-0.7-0.4-1-0.8c-0.4-0.6-0.9-1.2-1.5-1.8c-0.6-0.6-1.4-1-2.2-1.3
				c-0.9-0.3-1.9-0.5-3.2-0.5c-2.2,0-3.9,0.5-5.2,1.4c-1.3,0.9-2,2.2-2,4c0,0.9,0.2,1.8,0.7,2.6c0.5,0.8,1.3,1.4,2.4,2
				c1.1,0.6,2.7,1,4.6,1.3c3.4,0.5,5.9,1.5,7.6,3.1c1.7,1.6,2.5,3.7,2.5,6.2c0,1.5-0.3,2.8-0.8,3.9c-0.5,1.1-1.3,2.1-2.3,2.9
				c-1,0.8-2.1,1.4-3.4,1.8C448.9,198.4,447.5,198.7,446.1,198.7z"/>
			<path d="M485.2,198.4c-2.2,0-4.1-0.5-5.8-1.5c-1.7-1-3.1-2.4-4.1-4.1c-1-1.7-1.5-3.7-1.5-5.9c0-2.2,0.5-4.1,1.5-5.8
				c1-1.7,2.3-3.1,4-4.1c1.7-1,3.6-1.5,5.7-1.5c1.8,0,3.5,0.4,5,1.2c1.5,0.8,2.7,1.8,3.6,3.1v-12c0-0.5,0.1-0.9,0.5-1.2
				c0.3-0.3,0.7-0.4,1.1-0.4c0.5,0,0.8,0.1,1.1,0.4c0.3,0.3,0.5,0.7,0.5,1.2v19.3c-0.1,2.1-0.6,4-1.6,5.8c-1,1.7-2.3,3.1-4.1,4
				C489.2,198,487.3,198.4,485.2,198.4z M485.2,195.6c1.6,0,3-0.4,4.2-1.1c1.2-0.8,2.2-1.8,2.9-3.1c0.7-1.3,1.1-2.7,1.1-4.4
				c0-1.6-0.4-3.1-1.1-4.4c-0.7-1.3-1.7-2.3-2.9-3.1c-1.2-0.7-2.7-1.1-4.2-1.1c-1.6,0-3,0.4-4.2,1.1c-1.3,0.7-2.3,1.8-3,3.1
				c-0.7,1.3-1.1,2.8-1.1,4.4c0,1.6,0.4,3.1,1.1,4.4c0.7,1.3,1.7,2.3,3,3.1C482.2,195.2,483.6,195.6,485.2,195.6z"/>
			<path d="M506.1,171.6c-0.6,0-1.1-0.2-1.6-0.7s-0.7-1-0.7-1.6c0-0.7,0.2-1.2,0.7-1.6c0.5-0.4,1-0.6,1.6-0.6c0.6,0,1.1,0.2,1.5,0.6
				c0.5,0.4,0.7,0.9,0.7,1.6c0,0.6-0.2,1.2-0.7,1.6S506.8,171.6,506.1,171.6z M506.2,198.2c-0.5,0-0.9-0.1-1.2-0.4
				c-0.3-0.3-0.4-0.7-0.4-1.2v-19.2c0-0.5,0.1-0.9,0.4-1.2c0.3-0.3,0.7-0.4,1.2-0.4c0.5,0,0.8,0.1,1.1,0.4c0.3,0.3,0.4,0.7,0.4,1.2
				v19.2c0,0.5-0.1,0.9-0.4,1.2C507,198.1,506.6,198.2,506.2,198.2z"/>
			<path d="M525.6,198.4c-2.2,0-4.1-0.5-5.7-1.5c-1.7-1-3-2.3-3.9-4c-0.9-1.7-1.4-3.7-1.4-5.9c0-2.2,0.5-4.2,1.5-5.9
				c1-1.7,2.3-3.1,4.1-4c1.7-1,3.7-1.5,5.9-1.5c2.2,0,4.2,0.5,5.9,1.5c1.7,1,3,2.3,4,4c1,1.7,1.5,3.7,1.5,5.9l-1.8,1
				c0,2-0.4,3.8-1.3,5.4c-0.8,1.6-2,2.8-3.5,3.7C529.2,198,527.5,198.4,525.6,198.4z M526,207.1c-2.2,0-4.1-0.4-5.7-1.2
				c-1.6-0.8-3-1.9-4.1-3.3c-0.3-0.3-0.4-0.7-0.4-1.1c0-0.4,0.2-0.7,0.6-0.9c0.4-0.2,0.8-0.3,1.2-0.2c0.4,0.1,0.8,0.3,1,0.6
				c0.8,1,1.8,1.8,3.1,2.4c1.2,0.6,2.7,0.9,4.3,0.9c1.5,0,2.9-0.4,4.1-1.1c1.2-0.7,2.2-1.8,2.9-3.1s1.1-2.9,1.1-4.7v-6.2l1.2-2.4
				l1.9,0.4v8.4c0,2.2-0.5,4.2-1.5,6c-1,1.8-2.3,3.2-4,4.2C530.2,206.6,528.2,207.1,526,207.1z M526,195.6c1.6,0,3-0.4,4.3-1.1
				c1.2-0.7,2.2-1.7,2.9-3c0.7-1.3,1.1-2.8,1.1-4.4c0-1.7-0.4-3.1-1.1-4.4c-0.7-1.3-1.7-2.3-2.9-3c-1.2-0.7-2.7-1.1-4.3-1.1
				c-1.6,0-3,0.4-4.3,1.1c-1.3,0.7-2.2,1.7-2.9,3c-0.7,1.3-1.1,2.8-1.1,4.4c0,1.7,0.4,3.1,1.1,4.4c0.7,1.3,1.7,2.3,2.9,3
				C522.9,195.2,524.3,195.6,526,195.6z"/>
			<path d="M545.7,171.6c-0.6,0-1.1-0.2-1.6-0.7c-0.4-0.4-0.7-1-0.7-1.6c0-0.7,0.2-1.2,0.7-1.6c0.5-0.4,1-0.6,1.6-0.6
				c0.6,0,1.1,0.2,1.5,0.6c0.5,0.4,0.7,0.9,0.7,1.6c0,0.6-0.2,1.2-0.7,1.6C546.9,171.4,546.3,171.6,545.7,171.6z M545.7,198.2
				c-0.5,0-0.9-0.1-1.2-0.4c-0.3-0.3-0.4-0.7-0.4-1.2v-19.2c0-0.5,0.1-0.9,0.4-1.2c0.3-0.3,0.7-0.4,1.2-0.4c0.5,0,0.8,0.1,1.1,0.4
				c0.3,0.3,0.4,0.7,0.4,1.2v19.2c0,0.5-0.1,0.9-0.4,1.2C546.6,198.1,546.2,198.2,545.7,198.2z"/>
			<path d="M553.9,179.4c-0.4,0-0.8-0.1-1-0.4c-0.3-0.3-0.4-0.6-0.4-1c0-0.4,0.1-0.7,0.4-1c0.3-0.3,0.6-0.4,1-0.4h10.4
				c0.4,0,0.8,0.1,1,0.4c0.3,0.3,0.4,0.6,0.4,1c0,0.4-0.1,0.7-0.4,1c-0.3,0.3-0.6,0.4-1,0.4H553.9z M564.1,198.2
				c-1.4,0-2.7-0.3-3.9-1c-1.1-0.7-2-1.6-2.7-2.8c-0.7-1.2-1-2.5-1-4.1v-20c0-0.5,0.1-0.8,0.4-1.1c0.3-0.3,0.7-0.5,1.1-0.5
				s0.8,0.1,1.1,0.5c0.3,0.3,0.5,0.7,0.5,1.1v20c0,1.4,0.4,2.5,1.2,3.4c0.8,0.9,1.9,1.3,3.2,1.3h1.1c0.4,0,0.8,0.2,1.1,0.5
				c0.3,0.3,0.4,0.7,0.4,1.1c0,0.5-0.2,0.8-0.5,1.1c-0.3,0.3-0.7,0.4-1.2,0.4H564.1z"/>
			<path d="M581.7,198.4c-2.1,0-4-0.5-5.7-1.5c-1.7-1-3-2.4-4-4.1c-1-1.7-1.5-3.7-1.5-5.8c0-2.2,0.5-4.1,1.5-5.9
				c1-1.7,2.4-3.1,4.1-4.1c1.7-1,3.7-1.5,5.8-1.5c2.2,0,4.1,0.5,5.8,1.5c1.7,1,3.1,2.4,4.1,4.1c1,1.7,1.5,3.7,1.5,5.9l-1.3,1
				c0,2-0.5,3.7-1.4,5.3c-0.9,1.6-2.2,2.8-3.7,3.7C585.4,198,583.7,198.4,581.7,198.4z M582,195.6c1.6,0,3-0.4,4.2-1.1
				c1.2-0.7,2.2-1.8,2.9-3.1c0.7-1.3,1.1-2.8,1.1-4.4c0-1.6-0.4-3.1-1.1-4.4c-0.7-1.3-1.7-2.3-2.9-3.1c-1.2-0.8-2.7-1.1-4.2-1.1
				c-1.6,0-3,0.4-4.2,1.1c-1.3,0.8-2.3,1.8-3,3.1c-0.7,1.3-1.1,2.7-1.1,4.4c0,1.6,0.4,3.1,1.1,4.4c0.7,1.3,1.7,2.3,3,3.1
				C579,195.2,580.4,195.6,582,195.6z M591.8,198.2c-0.5,0-0.8-0.1-1.1-0.4c-0.3-0.3-0.5-0.7-0.5-1.1v-7l0.8-3.2l2.4,0.6v9.6
				c0,0.5-0.1,0.8-0.5,1.1S592.2,198.2,591.8,198.2z"/>
			<path d="M604.4,198.2c-1.1,0-2.1-0.3-2.9-0.9c-0.9-0.6-1.5-1.4-2-2.5c-0.5-1.1-0.7-2.3-0.7-3.7v-23.4c0-0.5,0.1-0.8,0.4-1.1
				s0.7-0.4,1.1-0.4s0.8,0.1,1.1,0.4s0.4,0.7,0.4,1.1v23.4c0,1.2,0.2,2.1,0.7,2.9c0.5,0.7,1.1,1.1,1.8,1.1h1c0.4,0,0.7,0.1,1,0.4
				c0.2,0.3,0.4,0.7,0.4,1.1c0,0.5-0.2,0.8-0.5,1.1c-0.3,0.3-0.8,0.4-1.3,0.4H604.4z"/>
			<path d="M625.3,171.6c-0.6,0-1.1-0.2-1.6-0.7c-0.4-0.4-0.7-1-0.7-1.6c0-0.7,0.2-1.2,0.7-1.6c0.5-0.4,1-0.6,1.6-0.6
				c0.6,0,1.1,0.2,1.5,0.6c0.5,0.4,0.7,0.9,0.7,1.6c0,0.6-0.2,1.2-0.7,1.6C626.5,171.4,625.9,171.6,625.3,171.6z M625.3,198.2
				c-0.5,0-0.9-0.1-1.2-0.4c-0.3-0.3-0.4-0.7-0.4-1.2v-19.2c0-0.5,0.1-0.9,0.4-1.2c0.3-0.3,0.7-0.4,1.2-0.4c0.5,0,0.8,0.1,1.1,0.4
				c0.3,0.3,0.4,0.7,0.4,1.2v19.2c0,0.5-0.1,0.9-0.4,1.2C626.2,198.1,625.8,198.2,625.3,198.2z"/>
			<path d="M636.5,198.2c-0.5,0-0.9-0.1-1.2-0.4c-0.3-0.3-0.4-0.7-0.4-1.1v-19.3c0-0.5,0.1-0.9,0.4-1.2c0.3-0.3,0.7-0.4,1.2-0.4
				c0.5,0,0.8,0.1,1.1,0.4c0.3,0.3,0.4,0.7,0.4,1.2v19.3c0,0.5-0.1,0.8-0.4,1.1C637.4,198.1,637,198.2,636.5,198.2z M654.1,198.2
				c-0.5,0-0.8-0.1-1.1-0.5c-0.3-0.3-0.5-0.7-0.5-1.1V186c0-1.7-0.3-3.1-1-4.2c-0.6-1.1-1.5-1.9-2.6-2.5c-1.1-0.5-2.4-0.8-3.7-0.8
				c-1.3,0-2.5,0.3-3.6,0.8c-1.1,0.5-1.9,1.2-2.6,2.1c-0.6,0.9-0.9,1.9-0.9,3.1h-2.3c0.1-1.7,0.5-3.3,1.4-4.6c0.9-1.4,2-2.4,3.5-3.2
				c1.4-0.8,3.1-1.2,4.8-1.2c1.9,0,3.7,0.4,5.2,1.2c1.5,0.8,2.7,2,3.6,3.5s1.3,3.5,1.3,5.7v10.7c0,0.4-0.1,0.8-0.5,1.1
				C654.9,198.1,654.6,198.2,654.1,198.2z"/>
			<path d="M664.9,171.6c-0.6,0-1.1-0.2-1.6-0.7c-0.4-0.4-0.7-1-0.7-1.6c0-0.7,0.2-1.2,0.7-1.6c0.5-0.4,1-0.6,1.6-0.6
				c0.6,0,1.1,0.2,1.5,0.6c0.5,0.4,0.7,0.9,0.7,1.6c0,0.6-0.2,1.2-0.7,1.6C666,171.4,665.5,171.6,664.9,171.6z M664.9,198.2
				c-0.5,0-0.9-0.1-1.2-0.4c-0.3-0.3-0.4-0.7-0.4-1.2v-19.2c0-0.5,0.1-0.9,0.4-1.2c0.3-0.3,0.7-0.4,1.2-0.4c0.5,0,0.8,0.1,1.1,0.4
				c0.3,0.3,0.4,0.7,0.4,1.2v19.2c0,0.5-0.1,0.9-0.4,1.2C665.7,198.1,665.4,198.2,664.9,198.2z"/>
			<path d="M673.1,179.4c-0.4,0-0.8-0.1-1-0.4c-0.3-0.3-0.4-0.6-0.4-1c0-0.4,0.1-0.7,0.4-1c0.3-0.3,0.6-0.4,1-0.4h10.4
				c0.4,0,0.8,0.1,1,0.4c0.3,0.3,0.4,0.6,0.4,1c0,0.4-0.1,0.7-0.4,1c-0.3,0.3-0.6,0.4-1,0.4H673.1z M683.3,198.2
				c-1.4,0-2.7-0.3-3.9-1c-1.1-0.7-2-1.6-2.7-2.8c-0.7-1.2-1-2.5-1-4.1v-20c0-0.5,0.1-0.8,0.4-1.1c0.3-0.3,0.7-0.5,1.1-0.5
				c0.5,0,0.8,0.1,1.1,0.5c0.3,0.3,0.5,0.7,0.5,1.1v20c0,1.4,0.4,2.5,1.2,3.4c0.8,0.9,1.9,1.3,3.2,1.3h1.1c0.4,0,0.8,0.2,1.1,0.5
				c0.3,0.3,0.4,0.7,0.4,1.1c0,0.5-0.2,0.8-0.5,1.1c-0.3,0.3-0.7,0.4-1.2,0.4H683.3z"/>
			<path d="M693.2,171.6c-0.6,0-1.1-0.2-1.6-0.7c-0.4-0.4-0.7-1-0.7-1.6c0-0.7,0.2-1.2,0.7-1.6c0.5-0.4,1-0.6,1.6-0.6
				c0.6,0,1.1,0.2,1.5,0.6c0.5,0.4,0.7,0.9,0.7,1.6c0,0.6-0.2,1.2-0.7,1.6C694.3,171.4,693.8,171.6,693.2,171.6z M693.2,198.2
				c-0.5,0-0.9-0.1-1.2-0.4c-0.3-0.3-0.4-0.7-0.4-1.2v-19.2c0-0.5,0.1-0.9,0.4-1.2c0.3-0.3,0.7-0.4,1.2-0.4c0.5,0,0.8,0.1,1.1,0.4
				c0.3,0.3,0.4,0.7,0.4,1.2v19.2c0,0.5-0.1,0.9-0.4,1.2C694,198.1,693.7,198.2,693.2,198.2z"/>
			<path d="M712.7,198.4c-2.1,0-4-0.5-5.7-1.5c-1.7-1-3-2.4-4-4.1c-1-1.7-1.5-3.7-1.5-5.8c0-2.2,0.5-4.1,1.5-5.9
				c1-1.7,2.4-3.1,4.1-4.1c1.7-1,3.7-1.5,5.8-1.5c2.2,0,4.1,0.5,5.8,1.5c1.7,1,3.1,2.4,4.1,4.1c1,1.7,1.5,3.7,1.5,5.9l-1.3,1
				c0,2-0.5,3.7-1.4,5.3c-0.9,1.6-2.2,2.8-3.7,3.7C716.4,198,714.7,198.4,712.7,198.4z M713,195.6c1.6,0,3-0.4,4.2-1.1
				c1.2-0.7,2.2-1.8,2.9-3.1c0.7-1.3,1.1-2.8,1.1-4.4c0-1.6-0.4-3.1-1.1-4.4c-0.7-1.3-1.7-2.3-2.9-3.1c-1.2-0.8-2.7-1.1-4.2-1.1
				c-1.6,0-3,0.4-4.2,1.1c-1.3,0.8-2.3,1.8-3,3.1c-0.7,1.3-1.1,2.7-1.1,4.4c0,1.6,0.4,3.1,1.1,4.4c0.7,1.3,1.7,2.3,3,3.1
				C710,195.2,711.4,195.6,713,195.6z M722.8,198.2c-0.5,0-0.8-0.1-1.1-0.4c-0.3-0.3-0.5-0.7-0.5-1.1v-7l0.8-3.2l2.4,0.6v9.6
				c0,0.5-0.1,0.8-0.5,1.1S723.2,198.2,722.8,198.2z"/>
			<path d="M729.1,179.4c-0.4,0-0.8-0.1-1-0.4c-0.3-0.3-0.4-0.6-0.4-1c0-0.4,0.1-0.7,0.4-1c0.3-0.3,0.6-0.4,1-0.4h10.4
				c0.4,0,0.8,0.1,1,0.4c0.3,0.3,0.4,0.6,0.4,1c0,0.4-0.1,0.7-0.4,1c-0.3,0.3-0.6,0.4-1,0.4H729.1z M739.3,198.2
				c-1.4,0-2.7-0.3-3.9-1c-1.1-0.7-2-1.6-2.7-2.8c-0.7-1.2-1-2.5-1-4.1v-20c0-0.5,0.1-0.8,0.4-1.1c0.3-0.3,0.7-0.5,1.1-0.5
				c0.5,0,0.8,0.1,1.1,0.5c0.3,0.3,0.5,0.7,0.5,1.1v20c0,1.4,0.4,2.5,1.2,3.4c0.8,0.9,1.9,1.3,3.2,1.3h1.1c0.4,0,0.8,0.2,1.1,0.5
				c0.3,0.3,0.4,0.7,0.4,1.1c0,0.5-0.2,0.8-0.5,1.1c-0.3,0.3-0.7,0.4-1.2,0.4H739.3z"/>
			<path d="M749.2,171.6c-0.6,0-1.1-0.2-1.6-0.7c-0.4-0.4-0.7-1-0.7-1.6c0-0.7,0.2-1.2,0.7-1.6c0.5-0.4,1-0.6,1.6-0.6
				c0.6,0,1.1,0.2,1.5,0.6c0.5,0.4,0.7,0.9,0.7,1.6c0,0.6-0.2,1.2-0.7,1.6C750.4,171.4,749.8,171.6,749.2,171.6z M749.2,198.2
				c-0.5,0-0.9-0.1-1.2-0.4c-0.3-0.3-0.4-0.7-0.4-1.2v-19.2c0-0.5,0.1-0.9,0.4-1.2c0.3-0.3,0.7-0.4,1.2-0.4c0.5,0,0.8,0.1,1.1,0.4
				c0.3,0.3,0.4,0.7,0.4,1.2v19.2c0,0.5-0.1,0.9-0.4,1.2C750.1,198.1,749.7,198.2,749.2,198.2z"/>
			<path d="M766.5,198.2c-0.7,0-1.1-0.4-1.5-1.1l-9.1-19.3c-0.2-0.4-0.2-0.7,0-1.1c0.1-0.4,0.4-0.6,0.8-0.8c0.4-0.2,0.8-0.2,1.1-0.1
				c0.4,0.1,0.6,0.4,0.8,0.7l8.7,18.9h-1.7l8.6-18.9c0.2-0.4,0.4-0.6,0.8-0.8c0.4-0.1,0.8-0.1,1.2,0.1c0.4,0.2,0.6,0.5,0.8,0.8
				c0.1,0.4,0.1,0.7,0,1l-9,19.3C767.7,197.9,767.2,198.2,766.5,198.2z"/>
			<path d="M791.6,198.4c-2.2,0-4.2-0.5-5.9-1.5c-1.7-1-3-2.3-4-4s-1.5-3.7-1.5-5.9c0-2.2,0.5-4.2,1.4-5.9c0.9-1.7,2.2-3.1,3.8-4
				c1.6-1,3.5-1.5,5.6-1.5c2.1,0,3.9,0.5,5.4,1.4c1.5,0.9,2.7,2.2,3.6,3.9c0.8,1.7,1.3,3.6,1.3,5.7c0,0.4-0.1,0.8-0.4,1
				c-0.3,0.3-0.6,0.4-1.1,0.4h-17.4v-2.6h17.7l-1.8,1.3c0-1.6-0.3-3-0.9-4.3s-1.5-2.2-2.6-2.9c-1.1-0.7-2.4-1.1-4-1.1
				c-1.6,0-2.9,0.4-4.1,1.1c-1.2,0.7-2.1,1.8-2.7,3.1c-0.6,1.3-1,2.8-1,4.4c0,1.7,0.4,3.1,1.1,4.4c0.7,1.3,1.7,2.3,3,3
				c1.3,0.7,2.7,1.1,4.3,1.1c1,0,2-0.2,3-0.5c1-0.3,1.8-0.8,2.4-1.3c0.3-0.2,0.6-0.4,1-0.4c0.4,0,0.7,0.1,1,0.3
				c0.4,0.3,0.5,0.7,0.6,1.1c0,0.4-0.1,0.7-0.5,1c-0.9,0.8-2,1.4-3.4,1.9C794.3,198.2,792.9,198.4,791.6,198.4z"/>
		</g>
		<g>
			<path d="M806.4,141.8h-23.2V67.4c0-6.4,5.2-11.6,11.6-11.6H818v74.4C818,136.6,812.8,141.8,806.4,141.8z"/>
			<path class="st0" d="M806.4,8.5h-23.2V34c0,6.4,5.2,11.6,11.6,11.6H818V20.2C818,13.8,812.8,8.5,806.4,8.5z"/>
		</g>
	</g>
	<g>
		<g>
			<g>
				<path class="st1" d="M115.3,1.3C87.6,38.3,46.8,67,4.4,79C19.2,37.5,67.9,3.7,115.3,1.3z"/>
				<path class="st1" d="M89,156c-7.1-38.2-34-66.6-74.6-76c-0.1,0-0.1-0.1-0.1-0.2c0-0.1,0.2-0.2,0.3-0.2
					c47-9.4,93.4-37.7,126.9-76c7.5,1.8,14.2,4.6,20,8.2c-37.9,35.8-86.2,61-134.3,67.8c-0.1,0-0.3,0.1-0.3,0.2c0,0.1,0,0.2,0.2,0.2
					c43.4,6.9,74.3,32.1,87.6,67.8C106.3,151.5,97.7,154.2,89,156z"/>
				<path class="st1" d="M136.3,136.1C117.2,105.2,83.8,84.5,40,80c-0.1,0-0.2-0.1-0.2-0.2c0-0.1,0.2-0.2,0.3-0.2
					c46.9-4.5,94.6-25.2,134.9-56.1c3.2,3.9,5.9,8.3,7.8,13C142.6,61.2,98,76.9,54.3,79.6c-0.2,0-0.3,0.1-0.3,0.2
					c0,0.1,0,0.2,0.2,0.2c41.9,2.6,75.7,18.3,98.9,43.1C147.8,127.9,142.2,132.2,136.3,136.1z"/>
				<path class="st1" d="M164.9,110.7c-24.5-18-55.9-28.9-93-30.6c-0.1,0-0.2-0.1-0.2-0.2c0-0.1,0.2-0.2,0.3-0.2
					c38.2-1.7,77.3-12.7,114.1-30.6c1.3,9.5,0.3,19.9-3.5,30.9C178.9,90.8,172.8,101.2,164.9,110.7z"/>
				<path class="st1" d="M3.8,80.6c34.2,12,55.2,40.7,57.4,77.6C15.4,155.9-10,122.1,3.8,80.6z"/>
			</g>
		</g>
	</g>
</g>
</svg>
