<svg width="107" height="30" viewBox="0 0 107 30" fill="none" xmlns="http://www.w3.org/2000/svg"><defs><linearGradient id="araraGrad" gradientUnits="userSpaceOnUse" x1="0.7" y1="15" x2="106.7" y2="15"><stop offset="0" stop-color="#00C4FA"/><stop offset="1" stop-color="#00125A"/></linearGradient></defs>
<path d="M21.7792 5.00195H17.9481C17.5998 5.00195 17.3126 5.28913 17.3126 5.63742V7.2444C15.5651 5.83905 13.3471 5.00195 10.9275 5.00195C5.27552 5.00195 0.705078 9.5785 0.705078 15.2182C0.705078 20.858 5.27552 25.4345 10.9214 25.4345C13.341 25.4345 15.559 24.5913 17.3065 23.1921V24.7929C17.3065 25.1473 17.5937 25.4345 17.942 25.4345H21.7731C22.1214 25.4345 22.4147 25.1473 22.4147 24.7929V5.63742C22.4147 5.28913 22.1275 5.00195 21.7731 5.00195H21.7792ZM10.9214 20.3264C8.09844 20.3264 5.81322 18.0412 5.81322 15.2182C5.81322 12.3953 8.10455 10.1101 10.9214 10.1101C13.7382 10.1101 16.0295 12.3953 16.0295 15.2182C16.0295 18.0412 13.7443 20.3264 10.9214 20.3264Z" fill="url(#araraGrad)"/>
<path d="M63.9215 5.00195H60.0904C59.7421 5.00195 59.455 5.28913 59.455 5.63742V7.2444C57.7013 5.83905 55.4833 5.00195 53.0698 5.00195C47.4301 5.00195 42.8535 9.5785 42.8535 15.2182C42.8535 20.858 47.4301 25.4345 53.0698 25.4345C55.4894 25.4345 57.7074 24.5913 59.455 23.1921V24.7929C59.455 25.1473 59.7421 25.4345 60.0904 25.4345H63.9215C64.2698 25.4345 64.557 25.1473 64.557 24.7929V5.63742C64.557 5.28913 64.2698 5.00195 63.9215 5.00195ZM53.0637 20.3264C50.2408 20.3264 47.9555 18.0412 47.9555 15.2182C47.9555 12.3953 50.2408 10.1101 53.0637 10.1101C55.8866 10.1101 58.1718 12.3953 58.1718 15.2182C58.1718 18.0412 55.8866 20.3264 53.0637 20.3264Z" fill="url(#araraGrad)"/>
<path d="M106.064 5.00195H102.233C101.879 5.00195 101.592 5.28913 101.592 5.63742V7.2444C99.8381 5.83905 97.62 5.00195 95.2065 5.00195C89.5668 5.00195 84.9902 9.5785 84.9902 15.2182C84.9902 20.858 89.5607 25.4345 95.2065 25.4345C97.6262 25.4345 99.8442 24.5913 101.592 23.1921V24.7929C101.592 25.1473 101.879 25.4345 102.233 25.4345H106.064C106.419 25.4345 106.706 25.1473 106.706 24.7929V5.63742C106.706 5.28913 106.419 5.00195 106.064 5.00195ZM95.2065 20.3264C92.3836 20.3264 90.0984 18.0412 90.0984 15.2182C90.0984 12.3953 92.3836 10.1101 95.2065 10.1101C98.0294 10.1101 100.315 12.3953 100.315 15.2182C100.315 18.0412 98.0294 20.3264 95.2065 20.3264Z" fill="url(#araraGrad)"/>
<path d="M39.0168 5.00195C37.1532 5.00195 35.4118 5.50299 33.9087 6.37064V5.63742C33.9087 5.28913 33.6215 5.00195 33.2732 5.00195H29.4421C29.0938 5.00195 28.8066 5.28913 28.8066 5.63742V24.7929C28.8066 25.1473 29.0938 25.4345 29.4421 25.4345H33.2732C33.6215 25.4345 33.9087 25.1473 33.9087 24.7929V15.206C33.9087 12.3892 36.2 10.104 39.0168 10.104C39.3651 10.104 39.6584 9.8168 39.6584 9.46852V5.51521C39.6584 5.16693 39.3712 5.00806 39.0168 5.00806V5.00195Z" fill="url(#araraGrad)"/>
<path d="M81.1638 5.00195C79.3002 5.00195 77.5588 5.50299 76.0557 6.37064V5.63742C76.0557 5.28913 75.7685 5.00195 75.4141 5.00195H71.583C71.2347 5.00195 70.9414 5.28913 70.9414 5.63742V24.7929C70.9414 25.1473 71.2286 25.4345 71.583 25.4345H75.4141C75.7685 25.4345 76.0557 25.1473 76.0557 24.7929V15.206C76.0557 12.3892 78.347 10.104 81.1638 10.104C81.5121 10.104 81.7993 9.8168 81.7993 9.46852V5.51521C81.7993 5.16693 81.5121 5.00806 81.1638 5.00806V5.00195Z" fill="url(#araraGrad)"/>
</svg>
