<svg id="logo2" xmlns="http://www.w3.org/2000/svg" xmlns:xlink="http://www.w3.org/1999/xlink" viewBox="0 0 308.77 59.18"><defs><style>.cls-1{fill:#033c8a;}.cls-2{fill:url(#linear-gradient);}.cls-3{fill:url(#linear-gradient-2);}.cls-4{fill:url(#linear-gradient-3);}.cls-5{fill:url(#linear-gradient-4);}.cls-6{fill:url(#linear-gradient-5);}.cls-7{fill:url(#linear-gradient-6);}</style><linearGradient id="linear-gradient" x1="-190.75" y1="-557.1" x2="-242.68" y2="-557.1" gradientTransform="translate(129.35 267.69) scale(0.42)" gradientUnits="userSpaceOnUse"><stop offset="0" stop-color="#fcf7f3"/><stop offset="0.5" stop-color="#e7a787"/><stop offset="1" stop-color="#d22c25"/></linearGradient><linearGradient id="linear-gradient-2" x1="-269.21" y1="-533.75" x2="-242.99" y2="-507.54" xlink:href="#linear-gradient"/><linearGradient id="linear-gradient-3" x1="-305.01" y1="-499.44" x2="-290.67" y2="-513.78" xlink:href="#linear-gradient"/><linearGradient id="linear-gradient-4" x1="-166.89" y1="-609.47" x2="-151.93" y2="-624.43" xlink:href="#linear-gradient"/><linearGradient id="linear-gradient-5" x1="-136.39" y1="-571.07" x2="-162.9" y2="-597.59" xlink:href="#linear-gradient"/><linearGradient id="linear-gradient-6" x1="-121.89" y1="-611.09" x2="-96.29" y2="-611.09" xlink:href="#linear-gradient"/></defs><polygon class="cls-1" points="308.66 26.94 308.2 26.05 307.63 25.25 307.15 24.52 306.81 24.26 304.99 23.2 304.42 22.71 303.83 22.25 303.56 22.17 303.26 22.27 302.15 23.14 301.62 23.36 300.18 23.73 297.88 24.3 295.16 24.91 293.96 25.22 292.65 25.43 291.88 25.56 291.47 25.75 290.66 26.15 287.36 27.69 286.81 27.89 284.63 28.89 283.75 29.22 283.29 29.38 283.04 29.39 282.95 29.34 282.84 28.98 282.7 27.91 282.51 27.35 282.09 26.41 281.65 25.34 281.02 24.6 279.74 23.62 279.34 23.27 279.18 22.97 279.21 22.77 279.97 22.17 280.65 21.79 281.94 21.41 282.65 21.07 283.41 20.16 283.72 19.42 283.88 18.97 284.08 18.41 284.15 17.8 284.22 17.03 283.8 15.79 283.57 15.41 283.28 15.09 283.02 14.75 282.56 14.31 281.6 13.15 280.78 12.15 280.25 11.78 279.72 11.56 279.16 11.53 278.65 11.63 278.06 11.95 277.77 12.25 277.14 13.29 276.44 14.1 274.71 15.54 273.06 16.91 271.03 18.36 270.25 18.94 267.88 20.35 265.95 21.6 264.91 22.21 264.62 22.39 264.51 22.57 264.51 22.68 264.67 22.82 265.1 22.86 266.56 22.75 266.92 22.84 267.75 23.52 268.3 24.03 269.32 24.53 270.02 24.88 270.67 25.14 271.19 25.15 272.03 25.15 273.09 25 275.08 24.57 275.47 24.62 275.65 24.74 275.73 25.12 275.67 25.52 275.32 26.23 274.6 27.32 273.38 28.97 272.56 29.97 271.99 30.61 270.98 31.86 270.49 32.42 269.75 33.35 269.24 34.05 266.95 37.21 264.55 40.7 264.42 41.01 264.46 41.22 264.65 41.48 265.16 41.73 266.62 41.81 267.35 41.8 267.91 41.84 268.86 41.58 270.2 40.95 271.62 40.56 272.48 40.07 272.87 39.83 273.1 39.78 273.2 39.82 273.3 40.04 273.26 40.74 273.06 42.04 272.81 43.76 272.77 44.73 272.7 46.49 272.71 48.09 272.99 48.86 273.89 49.93 274.34 50.38 275.52 51.16 276.46 51.59 276.93 51.69 277.58 51.61 278.32 51.29 279.24 50.7 280.05 49.85 280.49 49.08 280.65 48.48 280.71 47.52 280.57 46.02 280.43 45.27 280.39 44.55 280.32 44.2 280.27 43.83 280.24 43.32 280.16 42.5 280.13 41.82 280.06 40.48 280.08 38.75 280.3 37.51 280.34 36.68 280.21 36.05 279.87 35.32 279.12 34.12 278.96 33.52 278.99 33.13 279.29 32.52 279.55 32.17 280.4 31.66 280.87 31.52 281.09 31.58 281.31 31.83 281.69 32.66 281.95 33.3 282.65 34.41 283.15 34.97 283.75 35.58 284.42 36.27 284.91 36.54 285.39 36.66 286.33 36.53 287.33 36.18 288.13 35.76 289.28 35.1 291.62 33.97 291.99 33.88 292.17 34.01 292.3 34.49 292.54 36.06 292.6 36.6 292.73 37.23 292.79 37.58 292.9 38.9 292.88 40.51 292.8 41.47 292.66 43.45 292.34 44.46 291.93 45.56 291.58 45.82 291.23 45.91 289.29 45.61 288.38 45.46 287.2 45.27 285.28 44.76 285.03 44.8 284.91 44.99 284.92 45.23 285.24 45.98 285.7 47.49 286.41 48.74 286.87 49.49 287.49 50.08 288.12 50.5 289.99 51.36 291.14 52.02 291.36 52.25 291.52 53 291.62 53.65 291.83 54.05 292.41 54.52 293.01 54.68 294.15 54.67 295.18 54.54 296.06 54.38 296.83 54.08 297.17 53.82 297.96 52.94 298.42 52.35 298.98 51.25 299.55 49.24 299.61 48.85 299.88 48.21 300 47.59 300.02 46.61 299.9 46.12 299.93 45.29 299.91 44.37 300 43.41 300.16 42.2 300.05 40.94 300.09 40.24 300.17 36.72 300.16 36.35 300.04 35.9 300.02 34.92 300.02 34.2 300.08 33.84 300.01 33.48 300 32.83 299.95 32.27 300.02 32.05 300.25 31.82 300.72 31.68 303.48 31.26 303.91 31.29 304.64 31.61 305.25 31.91 305.84 32.01 306.73 31.89 307.44 31.54 307.77 31.27 308.06 30.81 308.69 28.87 308.77 27.59 308.66 26.94"/><path class="cls-1" d="M200,48.64l-.41-.5-.39-.37-.94-.72-.82-.38-3.25-1.3-.86-.49-1.67-.9-.73-.32-.57-.34-.55-.51-.14-.32,0-.26.41-.95.09-.52.27-.94.53-2.19.09-.67.33-2.59,0-.53.13-1.06-.08-.53v-.4l.35-.41,1.5-1.52.45-.76.59-1.37.24-.66.56-1.56.4-.66.86-.8.53-.69.23-.51.09-.67v-.63l-.18-.43-.27-.33-.38-.52-.53-.69-1.17-1.86-1.27-1.14-.71-.49-.43-.19h-.42l-.43.18-.33.28-.93.73-.81.4-.77.28-1.77.5-1,.17-.31-.12-.13-.18v-.27l.25-1.12.34-1.92.16-1-.12-.78-.2-.41-.54-.52-1-.66-1.45-.66-1.32-.35-.94-.1-.84,0-1.19.32-.66.39-.59.63-.37.53-.25.67.05.39.38.68.46.6.3.61.05.56.07,1.3-.05.54-.09.81-.26,1.56-.17.43-.23.22-.56.2-1.59.67-.42,0-.22-.09-.21-.24,0-.34.43-1.08.2-.56.29-1.53,0-.64-.16-.61-.42-.63-.45-.61-1.09-1-.62-.43-.43-.33-.53-.37-.87-.35-1.63-.33-1.11-.1-.64-.11-.8-.07-.44.07-.27.19-.41.65-.5,1.31-.15.91,0,1.13.16.74.13.63.25.66,1,1.6,1,1.11.71.79.44.32,1.53.28.32.13.1.21,0,.55,0,1,.19.87.47,1.19.73.78.17.44-.09,1.81-.11,2-.12.93-.18,1.64-.21,1.45-.07.57-.27,1.71-.1.21-.09,0-.1,0-.23-.39-.08-1,.09-.51-.09-.8L170,35l-.4-.21-.25,0-.33.14-.84.82-1.68,2.1L165,39.4l-.53.53-1,.92-1.24.88-.65.41-.4.2-.93.12-.31.15-.49.56-.32.6-.06.39.08.38.37.69.56.63.34.58.49,1.63.48,1.17.77,1.2.35.41.56.34.53.08,1.05-.17.42-.19,1.22-.89,1.11-.86.23-.06.08.07v.24l-.24.67L167,51.22l.05.25.27.19.35.25.32.14h.43l1.91-.5.73,0,.89-.06.55-.2.82-.55.48-.28.4,0,.56.35.9.61.73.18.7.35.48.13h.55l.7-.21,1-.53,1-.67.49-.42.57-.34,2.24-1.08.5-.09.21.07.76.76,1.1.86.84.67,1.27,1.3.77.75.46.29.68.22.66.11,1.22-.15.77-.28.64-.42,1.41-1.16,1-.64,1.45-.36.88-.17,1-.19.8-.26.15-.16,0-.23-.09-.2Zm-21-4.49-.53.68L177.36,46,176,47l-.45.32-.34.26-.22.07-.11,0-.13-.18V47l0-.48,0-.39.15-.76.17-1.24.23-.82.17-.89.25-1.27.16-.44.07-.38.23-.23.23-.07.26,0,.56.35.27.33.29.62.55,1.12.74,1.07,0,.23Zm5.48-7.67L184,37.55l-.49.88-.32.28h-.42l-.37-.24-.64-.57-.83-.83-1.33-1.23-.64-.42-1-.5-1.11-.25-.2-.26,0-.71.14-2.1-.06-1.21,0-.42.05-.71.07-1.14.13-.33.24-.21.36-.07.23.07.13.18.21,1.44.29.93,0,.4-.41.8-.07.62.22.69.39.66.41.36.35.25.41.5.5.55.81.4.62.14,1.17-.08,1.09-.26.58,0,.18.12.07.36Zm3.21-11.31-.36,1.45-.51,1.31-.31.6-.2.26-.31.13h-.59l-.35-.06-.27-.18-.11-.19v-1l.13-.92.09-1,.16-.45.3-.31.87-.34,1.16-.36.25,0,.12.19Z"/><path class="cls-1" d="M251.52,43.59v-.41l-.13-.63-.2-1.15-.2-1.16,0-.82-.18-.43-.16-.14-.47-.12-1,0-.77-.13L247.11,38l-1.32-.94-.79-.88,0-.23.09-.21,1.32-1.1.57-.64.68-.53.42-.18.82-.24.68-.37.73-.78.13-.33,0-.39-.18-.58-.52-1.29L249,28.21l-.46-.6-.7-1-.4-.36-.66-.25-.22,0-.24.22-.82,2.35-.32.6-.67.68-1.72,1.16-.78.58-1.13.82-.45.16-.33-.07-.22-.24v-.23l.21-.25.94-.42,1.1-.41.59-.32.59-.46.23-.38.09-.51,0-.84.54-2.47.63-2.54L245,23l.27-1.23-.07-.63V19.94l.15-1.12,0-.86.15-.6.47-.9.39-1.12.2-.85v-.8l0-.78-.1-.36-.24-.21-.45-.15-.6-.16-.68-.38L243.41,11l-.38-.23-.85-.36-.39,0-.43.17-.92.6-1,.34-3.79,1-1,.32-.5-.07-1.39-.43L231.1,12l-.38.19-.28.32-.46.91-.28.93-.18.13-.24,0-.81-.41-.71-.19-1.47-.06-1.16-.08-.27-.18-.58-.64-1-1.08-.59-.46L222,11l-.63-.13-.52.09-.37.23-.4.51-.22.83-.05.84,0,.55-.27.49-.58.93-1.08,1.8-1.29,2.18-.64.87-1,1.4-.52.69-.36.54-.6.91-.54.83-.27.34-1.12,2.2-.34.71-.43.78-.78,1.34-1.6,2.63-.43.93,0,.26,0,.1.19.12h.39l1.86,0,.8-.07.7-.37.54-.36,1.1-.42.72-.49.6-.76,1.05-1.21.76-1.05,1.58-1.9.35-.26.25,0,.37.08.88.49.27.33.13.33v.58l-.12.34-.29.32-1.08.73-1.83.88-.89.17-.46.3-.24.36-.17.59,0,.73.4,1.11.75.91.63.42,1.09.28.75.11.95-.19.27,0,.15.16,0,.43,0,.13-.07.08h-1.06l-1.53,0-.53.06-1.63-.34-.48-.1-.31.15-.26.34-.31.75-.29.93.12,1.53.29.76.37,1.3,0,.76.14,1.43,0,.39-.13.34-.37.23-1.35.46-.4.36-.25.5-.11.64.35,1.61.21.7.43.63,1,.81,1.16.5.52.08.62-.13.75-.46,1.39-.88,1.41-.86.79-.41,1.61-.81,1.6-.82,1.64-1.08,1.14-.83,1-.79,1.39-.88.35-.1.11,0,.1.21,0,.87,0,.91L230,47.7l-.2,1.44-.09,1,.17,1.64.36.85.38.53.47.29.72.17,2.06,0,.72-.13.89-.32.57-.34,1.1-1.16L238.21,50l.5-.7.53-.82.82-1.16.32-.43.43-1.08.32-1.05.3-.6.17-.14h.25l.29.17.37.39,1,1.07,1,1.22.26.49.75,1.52.25.51.44.62.46.3.93,0,.61-.15,1.15-.5.53-.38.38-.38.34-.72.19-.72.29-.62.36-.54.23-1.06L251.55,44ZM220.6,40.32l0,.84,0,1-.12.33-.17.14-.25,0-.1-.06-.08-.23,0-.38v-.41l-.19-1.18-.15-.46,0-1,.18-.58.36-.54.32-.31h.1l.07.05.08.56,0,.85v1.42Zm8.71-19.95.22-.25.17,0,.11.17,0,.73-.11.36-.08.06h-.08l-.25-.34-.08-.33Zm-3.75-.48-.33.27-.57.34-1.65.92-.25.07h-.12l-.08-.06v-.23l.14-.32.19-.41.47-.75.43-.33,1-.21h.37l.27.18.15.31ZM227,33.56l-.22.84-.29.48-.2.1-.2-.07-.16-.59-.07-.53.1-.36.19-.25.42-.19.54-.05.09.05,0,.08Zm.79-6.32-1.2.05-.55,0-.23-.08-.08-.08,0-.24.2-.27.31-.13.86-.06,1.21-.2.71-.35.26-.19.51-.68h.07l.14.31.15,1.2L230,27.91l-.06.25-.07.09-.09,0-.21-.08-.36-.35-.38-.37-.31-.15ZM230,39.94l-.14.17h-.25l-.53-.29-.72-.5-.08-.2.1-.2.49-.42.58-.33.34-.08.18.08.1.21v.42Zm.12-5.82-.11.19-.11,0-.28-.18-.21-.3-.32-.43-.47-.44v-.09l.15-.12.9-.33h.25l.14.16.08.65Zm6-15.54.35-.26.38-.05.86,0,.81-.08.23.08.09.22,0,.42-.15.3-.43.33-.32.13-.94.27-.43.18h-.23l-.19-.12L236,19.5l0-.72Zm-.2,7.41.24-.21.49-.12,1-.16.35.07.07.08,0,.26-.14.48-.24.21-.59.16-.69.07-.23-.06-.29-.32-.07-.23Zm.77,8.68v.24l-.12.19-.22.09-.09,0-.1-.2,0-.48.15-.15.16.07Zm3.18,6.65-.43.49-.31.29-2.24,1.38-.45.16h-.25l-.08-.07L236,43l-.09-.67,0-.53V41.4l.09-.21.43-.33,1.13-.37.74-.32.91-.47h.24l.23.23.28.62V41Z"/><path class="cls-1" d="M149.88,16l-.48-.58-.46-.59L147.57,13l-.49-.56-.55-.36-.39,0-1.3.22-.87.19-1.66.45-1.7.42L138,13.9l-1.65.46-1.31.35-.91.3-1.23.27-1.67.61-2.38.94-1.53.74-.87.34-3.14,1.4H123l-.11-.05,0-.09.07-.22,1-.87.56-.5.62-.73.15-.61,0-.42-.27-.79-.27-.48-1-2.29L123,11.18l-.29-.31-.41-.21-.36,0-.78.14-.62.28-.81.55-1.17,1-1.06.6-.76.3-.61.29-2.32,1.16-1.69,1-1.42.85-1.07.75-.58.48-.15.3-.07.56,0,.62.3,1.37.17.73.09.7v1.9l0,2.06,0,2.08,0,1.56,0,1,0,1.08.09.8,0,1.12,0,.56-.07.63V36l.07.68v2.08l-.06.83-.1,2.14L109,43.21l-.33,1,0,.43.18.73.31.6,1,1.61,1,1,1.2,1.22.48.27.71.21.55.05.87-.19.67-.38.42-.5.17-.43V48l-.11-1-.17-1.79-.19-1.77V40.18l0-1.09-.08-1,0-1v-.39L115.57,35l-.18-.9,0-1.41v-.82l.14-.47.15-.17h.22l.77.75,1.2,1.37.56.49.7.22.93.12L121,34l.73-.33.72-.49.66-.55.22,0,.1,0,.15.31.45,2,.22,2.35.21.85.32.9.57.93.43.33.5.15h.58l.52-.24.6-.45.6-.16,2.17-.4,1.93-.33,1-.39.89-.48.43-.47.12-.34.2-1.16-.05-.56L135,34.9l-.21-.39v-.39l.32-1.19.08-.69.2-1,.44-.92.28-.33.26,0,.1.05.1.37.06,1.25.09.86.05.9.09,1-.18,1.79-.16.75-.34,2.38-.28,1.83-.3,1.51-.4,1.61-.22.39-.36.24-.81.1-2.13.05L130.42,45l-2.14-.28-1.72-.25-1.08-.27-1.22-.45-.83-.39h-.12l-.1,0,0,.1.06.2,1,1L125.6,46l1.16,1,.28.32,1.09.88.26.19,2.15,1.1,1.54.55,1,.36.71.5.29.47.56,1.1.42.33,1.15.36h1.12l.79-.31.75-.47,1-1L141,49.62l.42-1.08.23-1,.37-1.44.41-2.71.11-.49.18-1,.31-1.35.06-.54.15-.61.19-2-.09-1.13,0-.57-.11-1.23,0-.56-.2-2,0-.7v-.51l0-.58v-.4l0-1.1.07-.69-.1-.81v-.71l-.08-.93.2-.55.49-1.17,0-.72-.06-.71V21.8l-.2-.57-.62-.58-.15-.16,0-.25,0-.11.41-.2,1.19-.11.53.05.63.29,1,.51.9.16.78-.11.88-.33.57-.49.37-.53.27-.65.38-1.29V17l-.12-.35ZM117.72,27.09l-.28.17-1.29.23h-.45l-.25-.21-.16-.44.12-1-.06-1,0-.71,0-1.13,0-.71-.14-.93,0-.41.21-.24.5-.26.52-.06.19.06,0,.24-.29,1.24v.57l.11.49.58,1.39.49,1,.24.67v.72ZM130.48,33l-.21.69-.24.37-.58.33-.62.11-.3-.12-.25-.34-.26-.8v-.43l.11-.2.54-.36,1.06-.45.52-.09.21.09.09.36Zm6.14-5.95-.1.65-.06.11-.2.07L136,27.7l-.19-.26-.46-.75-1.22-1.35-1-.51-.67-.25-.57,0-.58.15-1.11.85-3.58,1.87-.58.17-.5-.11-.9-.3-.79-.07-.24-.22-.42-.78-.25-.51-.44-1.08-.09-.36,0-.11.08-.06.2.05.82.55.6.3,1.1.42.38.07.63-.14,1.77-.95,1.69-1.18,1.21-.91,1.15-.51,1-.2.56,0,.28.17.34.42,1.1,1.47,1.14,1.28.15.46Z"/><polygon class="cls-1" points="159.71 32.39 160.22 33.08 160.99 33.82 161.89 34.28 162.83 34.53 164.01 34.5 165.33 34.16 166.02 33.94 167.07 33.48 167.88 32.94 168.46 32.3 169.09 31.12 169.29 30.41 169.39 29.3 169.32 28.91 169.13 28.05 168.54 27.12 168.04 26.71 167.35 26.35 166.03 25.86 164.33 25.45 163.34 25.42 162.85 25.54 161.72 25.77 161.12 26.07 160.43 26.43 158.92 27.05 158.22 27.41 157.93 27.72 157.85 27.94 157.89 28.21 158.26 29.05 158.34 29.73 158.4 30.36 158.58 31.1 158.92 31.66 159.42 32.06 159.71 32.39"/><polygon class="cls-1" points="285.18 19.24 285.5 19.67 286.01 20.22 287.25 21.1 288.09 22.07 288.28 22.34 289.41 23.02 290.14 23.2 291.07 23.09 291.37 22.99 295.05 21.83 296.4 21.52 297.28 21.19 298.25 20.8 298.77 20.56 299.4 20.44 300.92 20.72 302.14 20.65 302.71 20.48 303.01 20.32 303.29 20 303.44 19.39 303.59 18.02 303.49 16.9 303.06 15.81 302.42 14.64 301.83 13.87 300.99 13.2 299.29 12.03 298.44 11.67 298.05 11.63 297.62 11.8 295.95 12.7 293.78 13.86 291.76 14.86 290.33 15.55 288.5 16.43 286.71 17.07 285.02 17.94 284.74 18.27 284.71 18.5 284.91 18.91 285.18 19.24"/><polygon class="cls-1" points="29.1 13.9 37.24 0 68.06 52.78 51.81 52.78 29.1 13.9"/><path class="cls-2" d="M49.24,33.71a11,11,0,1,1-11-11A11,11,0,0,1,49.24,33.71Z"/><path class="cls-3" d="M29.7,49.07a7.86,7.86,0,1,1-7.86-7.85A7.86,7.86,0,0,1,29.7,49.07Z"/><path class="cls-4" d="M8.55,54.91a4.28,4.28,0,1,1-4.28-4.28A4.28,4.28,0,0,1,8.55,54.91Z"/><path class="cls-5" d="M66.68,8.63A4.34,4.34,0,1,1,62.35,4.3,4.33,4.33,0,0,1,66.68,8.63Z"/><path class="cls-6" d="M74.43,22.37a7.83,7.83,0,1,1-7.83-7.83A7.84,7.84,0,0,1,74.43,22.37Z"/><path class="cls-7" d="M89,11a5.4,5.4,0,1,1-5.39-5.4A5.39,5.39,0,0,1,89,11Z"/></svg>