<svg width="147" height="33" viewBox="0 0 147 33" fill="none" shape-rendering="geometricPrecision" role="img" aria-label="FormX" xmlns="http://www.w3.org/2000/svg"><path fill-rule="evenodd" clip-rule="evenodd" d="M19.5452 0.5L31.5525 1.49931L18.5428 12.5175L19.5452 0.5ZM18.1776 16.913L33.1 4.276L30.8114 31.4085C30.7634 31.9838 30.2585 32.4115 29.6836 32.3636L16.9798 31.3053L18.1776 16.913ZM1.54867 31.497L13.6186 32.5L14.6247 20.4198L1.54867 31.497ZM14.9888 16.028L0 28.724L2.28867 1.58413C2.33658 1.00888 2.84149 0.581136 3.41642 0.629073L16.1829 1.69107L14.9888 16.028Z" fill="#27272A"/><path fill-rule="evenodd" clip-rule="evenodd" d="M46.4705 9.45323H58.5994H58.6031V4.276H40.6807V28.6872H46.4705V18.7789H57.6743V13.8745H46.4705V9.45323ZM69.1214 10.5853C63.4679 10.5853 59.834 14.2175 59.834 19.8409C59.834 25.4606 63.5047 29.0965 69.1214 29.0965C74.738 29.0965 78.3719 25.4606 78.3719 19.8409C78.3719 14.2211 74.7749 10.5853 69.1214 10.5853ZM69.1214 14.8701C71.4838 14.8701 72.958 16.4816 72.958 19.8409C72.958 23.2002 71.5206 24.8116 69.1214 24.8116C66.7222 24.8116 65.248 23.2002 65.248 19.8409C65.248 16.4816 66.759 14.8701 69.1214 14.8701ZM92.2845 10.7918V15.6593H90.9135C87.932 15.6593 86.2182 17.1343 86.2182 20.4604V28.6872H80.8743V10.9946H86.0819V14.2875C86.8374 12.0935 88.4811 10.7217 91.1199 10.7217C91.5327 10.7217 91.9086 10.7549 92.2845 10.7918ZM122.097 28.6871V17.2006L122.101 17.2043C122.101 12.9526 119.701 10.5852 115.898 10.5852C113.465 10.5852 111.579 11.9939 110.381 13.7749C109.419 11.7173 107.466 10.5852 104.897 10.5852C102.568 10.5852 100.99 11.8169 99.8588 13.4984V10.9946H94.6512V28.6871H99.9951V18.9153C99.9951 16.205 101.469 15.143 103.08 15.143C104.963 15.143 105.719 16.205 105.719 18.1262V28.6871H111.063V18.9153C111.063 16.205 112.504 15.143 114.114 15.143C115.997 15.143 116.753 16.205 116.753 18.1262V28.6871H122.097ZM132.932 16.4906L125.884 4.276L132.588 4.3055L136.275 10.6962L139.963 4.3055L146.666 4.276L139.619 16.4906L146.666 28.7056L139.974 28.6945L136.275 22.2849L132.577 28.6945L125.884 28.7056L132.932 16.4906Z" fill="#27272A"/></svg>