<svg xmlns="http://www.w3.org/2000/svg" viewBox="0 0 656.42 317.48"><defs><style>.cls-1{fill:#df0515}.cls-2{fill:none}</style></defs><path class="cls-1" d="M247.05 196.46h25.78l-4.77 10.7h-25.79l4.78-10.7M243.42 68Q224.3 45.34 188 45.35a116.19 116.19 0 0 0-53.93 13.13Q108.54 71.61 87 97.24a186.19 186.19 0 0 0-28.11 44.66 154.55 154.55 0 0 0-13 47.81q-3.64 37.28 16 59.84t55.82 22.57a117.74 117.74 0 0 0 45.6-9.52 137 137 0 0 0 41.38-27 172.78 172.78 0 0 0 36.65-49.22q14.6-28.78 17.39-57.24 3.8-38.5-15.31-61.14Zm-25.25 34.22c-2.9 22.64-9.46 46.07-19.51 70.29a327.78 327.78 0 0 1-29.68 55Q154.81 248.58 141 259c-9.24 7-18.46 9.73-27.46 9.39-11.26-.42-19.25-4.75-24.19-14.11s-6.34-22.39-4.2-39.1a268.49 268.49 0 0 1 16.25-62.39 332.36 332.36 0 0 1 32.93-62.89q14.17-21.09 28-31.55c9.24-7 18.47-9.73 27.47-9.39 11.2.46 19.2 4.79 24.2 14.15s6.31 22.39 4.17 39.1ZM559.22 251.6c-4.79 0-8.34-3.29-8.91-8.39-.71-6.22 2.51-14.05 5.64-21.1 12-26.36 18.76-41.08 27.56-61h24.2l3.36-7.36h-24.2c2.31-5.07 12.78-28.63 19.06-42.79q-20.49 5.7-42.89 10.77l-14.25 32h-18.87l-3.35 7.36h19.15L527 203.85c-11.81 24.51-41.68 47.48-57.87 47.48-14.91 0-23-9.85-23-23 42-18.2 66-32.35 69.91-55.13 2.72-15.87-10.29-23.14-29.69-23.14-50 0-81.89 46.8-75.05 81.75a46.71 46.71 0 0 0 2.65 8.94c-12.24 8-24.79 11.9-29.87 11.47-6.69-.56-11.36-6.75-3.87-23.87 2.22-5.07 17.69-39.11 18.93-42.36 2.12-5.56 3.28-9.49 2.74-15.75-1.11-12.35-11.17-20.24-24.19-20.24-16.5 0-30.11 11-47.45 28.72l12.22-27.44q-18.72 1.05-37.84 1.7L256.5 261.05h37.07l31.3-70.25c4.13-9.46 27.4-26.46 33.25-28.14 5.6-1.6 9.19 2 9.54 5.92.42 4.64-2.12 9.54-4 13.94l-15.6 35.19c-5.91 13.2-7.35 21.18-5.34 28.41 2.66 9.76 11 17.69 26.93 17.69 12.72 0 31-8.72 45.72-20 6.49 12.53 19.38 20 40.65 20 28.11 0 48.45-19.92 62.2-39.65a39.65 39.65 0 0 0-1.22 19.41c2.28 11.65 11.07 20.23 28.27 20.23 31.75 0 55.5-38.11 64-53.39l-3.58-1.83c-9.69 16.91-31.8 43.02-46.47 43.02Zm-74-96.46c6.54 0 9.85 4 10.5 10.19 2 19.3-20.67 46.64-49.46 59.88-.03-23.67 21.04-70.07 38.93-70.07Z"/><path class="cls-2" transform="rotate(90 328.21 158.74)" d="M214.82-124.12h226.77v565.71H214.82z"/><path class="cls-2" d="M0 0h656.42v317.48H0z"/></svg>