<svg width="489" height="140" viewBox="0 0 489 140" fill="none" xmlns="http://www.w3.org/2000/svg">
<mask id="path-1-outside-1_7710_449" maskUnits="userSpaceOnUse" x="173.008" y="32" width="314" height="74" fill="black">
<rect fill="white" x="173.008" y="32" width="314" height="74"/>
<path d="M185.975 79.1719C186.137 81.5156 186.609 83.6641 187.391 85.6172C188.204 87.5378 189.262 89.1979 190.564 90.5977C191.867 91.9974 193.396 93.0879 195.154 93.8691C196.912 94.6178 198.849 94.9922 200.965 94.9922C202.82 94.9922 204.594 94.7969 206.287 94.4062C208.012 94.0156 209.526 93.3809 210.828 92.502C212.13 91.623 213.172 90.4837 213.953 89.084C214.734 87.6517 215.125 85.9102 215.125 83.8594C215.125 82.0039 214.555 80.4577 213.416 79.2207C212.309 77.9512 210.844 76.8444 209.021 75.9004C207.199 74.9564 205.115 74.11 202.771 73.3613C200.428 72.6126 198.035 71.8314 195.594 71.0176C193.185 70.2038 190.809 69.2923 188.465 68.2832C186.121 67.2415 184.038 65.9883 182.215 64.5234C180.392 63.026 178.911 61.2357 177.771 59.1523C176.665 57.069 176.111 54.5625 176.111 51.6328C176.111 48.638 176.697 46.0013 177.869 43.7227C179.041 41.4115 180.685 39.4746 182.801 37.9121C184.949 36.3496 187.488 35.1777 190.418 34.3965C193.38 33.5827 196.619 33.1758 200.135 33.1758C204.822 33.1758 208.712 33.8594 211.805 35.2266C214.93 36.5938 217.436 38.3678 219.324 40.5488C221.212 42.6973 222.579 45.0898 223.426 47.7266C224.272 50.3633 224.777 52.9512 224.939 55.4902H213.172C212.977 53.3092 212.505 51.4212 211.756 49.8262C211.04 48.2311 210.096 46.9128 208.924 45.8711C207.752 44.8294 206.417 44.0645 204.92 43.5762C203.423 43.0553 201.827 42.7949 200.135 42.7949C198.605 42.7949 197.091 42.9577 195.594 43.2832C194.096 43.5762 192.762 44.0807 191.59 44.7969C190.418 45.4805 189.474 46.3919 188.758 47.5312C188.042 48.638 187.684 50.0052 187.684 51.6328C187.684 53.5208 188.237 55.1159 189.344 56.418C190.483 57.6875 191.964 58.8105 193.787 59.7871C195.61 60.7311 197.693 61.5938 200.037 62.375C202.381 63.1237 204.773 63.9212 207.215 64.7676C209.656 65.5814 212.049 66.4928 214.393 67.502C216.736 68.5111 218.82 69.748 220.643 71.2129C222.465 72.6777 223.93 74.4355 225.037 76.4863C226.176 78.5371 226.746 80.9948 226.746 83.8594C226.746 87.3424 226.095 90.3861 224.793 92.9902C223.523 95.5944 221.733 97.7591 219.422 99.4844C217.143 101.21 214.425 102.512 211.268 103.391C208.143 104.27 204.708 104.709 200.965 104.709C197.612 104.709 194.357 104.123 191.199 102.951C188.042 101.779 185.21 100.087 182.703 97.873C180.229 95.6595 178.211 92.9902 176.648 89.8652C175.118 86.7077 174.305 83.1432 174.207 79.1719H185.975ZM248.24 81.2227C248.436 83.013 248.859 84.722 249.51 86.3496C250.161 87.9447 250.991 89.3607 252 90.5977C253.009 91.8021 254.181 92.7624 255.516 93.4785C256.85 94.1947 258.283 94.5527 259.812 94.5527C262.645 94.5527 264.988 93.7878 266.844 92.2578C268.732 90.6953 270.229 88.3678 271.336 85.2754H281.98C281.329 88.2376 280.271 90.8743 278.807 93.1855C277.374 95.4967 275.665 97.4499 273.68 99.0449C271.694 100.64 269.497 101.861 267.088 102.707C264.712 103.553 262.254 103.977 259.715 103.977C256.134 103.977 252.911 103.26 250.047 101.828C247.182 100.396 244.741 98.4753 242.723 96.0664C240.704 93.6576 239.142 90.8581 238.035 87.668C236.961 84.4453 236.424 81.0599 236.424 77.5117C236.424 74.1914 236.961 71.0176 238.035 67.9902C239.142 64.9303 240.704 62.2448 242.723 59.9336C244.741 57.5898 247.182 55.7344 250.047 54.3672C252.944 53 256.183 52.3164 259.764 52.3164C263.214 52.3164 266.339 52.9349 269.139 54.1719C271.938 55.4089 274.331 57.1341 276.316 59.3477C278.302 61.5286 279.816 64.1165 280.857 67.1113C281.932 70.0736 282.469 73.2799 282.469 76.7305V81.2227H248.24ZM270.75 72.4824C270.555 70.9199 270.148 69.5039 269.529 68.2344C268.943 66.9648 268.162 65.8743 267.186 64.9629C266.209 64.0189 265.053 63.3027 263.719 62.8145C262.384 62.2936 260.919 62.0332 259.324 62.0332C257.859 62.0332 256.492 62.3099 255.223 62.8633C253.986 63.4167 252.879 64.1654 251.902 65.1094C250.958 66.0534 250.161 67.1602 249.51 68.4297C248.891 69.6992 248.468 71.0501 248.24 72.4824H270.75ZM304.598 34.9336V103H293.074V34.9336H304.598ZM329.07 34.9336V103H317.547V34.9336H329.07ZM345.438 34.8848H372.391C375.906 34.8848 379.015 35.487 381.717 36.6914C384.419 37.8958 386.681 39.4746 388.504 41.4277C390.359 43.3483 391.759 45.513 392.703 47.9219C393.68 50.3307 394.168 52.7559 394.168 55.1973C394.168 57.7689 393.68 60.2917 392.703 62.7656C391.759 65.207 390.359 67.388 388.504 69.3086C386.648 71.1966 384.37 72.7266 381.668 73.8984C378.966 75.0378 375.874 75.6074 372.391 75.6074H356.961V103H345.438V34.8848ZM356.961 65.9395H369.949C372.326 65.9395 374.311 65.6628 375.906 65.1094C377.534 64.5234 378.836 63.7422 379.812 62.7656C380.822 61.7891 381.538 60.6497 381.961 59.3477C382.417 58.013 382.645 56.5807 382.645 55.0508C382.645 53.5534 382.368 52.1699 381.814 50.9004C381.261 49.5983 380.447 48.4915 379.373 47.5801C378.299 46.6361 376.964 45.9036 375.369 45.3828C373.807 44.862 372 44.6016 369.949 44.6016H356.961V65.9395ZM406.678 53.293H415.223L417.127 59.3965C418.624 57.0527 420.171 55.2949 421.766 54.123C423.393 52.9186 425.167 52.3164 427.088 52.3164C427.674 52.3164 428.618 52.4466 429.92 52.707C431.222 52.9349 432.785 53.5534 434.607 54.5625V64.5234C433.403 64.0677 432.361 63.7096 431.482 63.4492C430.636 63.1888 429.92 63.0098 429.334 62.9121C428.781 62.7819 428.341 62.7168 428.016 62.7168C427.723 62.6842 427.511 62.668 427.381 62.668C425.949 62.668 424.663 62.9772 423.523 63.5957C422.384 64.1816 421.424 64.9792 420.643 65.9883C419.861 66.9648 419.259 68.1042 418.836 69.4062C418.413 70.7083 418.201 72.0592 418.201 73.459V103H406.678V53.293ZM438.865 78.2441C438.865 74.696 439.386 71.3594 440.428 68.2344C441.469 65.0768 442.983 62.3262 444.969 59.9824C446.954 57.6061 449.396 55.7344 452.293 54.3672C455.223 53 458.543 52.3164 462.254 52.3164C465.965 52.3164 469.269 53 472.166 54.3672C475.096 55.7344 477.553 57.6061 479.539 59.9824C481.557 62.3262 483.087 65.0768 484.129 68.2344C485.203 71.3594 485.74 74.696 485.74 78.2441C485.74 81.7598 485.219 85.0801 484.178 88.2051C483.136 91.3301 481.606 94.0645 479.588 96.4082C477.602 98.752 475.145 100.607 472.215 101.975C469.318 103.309 466.014 103.977 462.303 103.977C458.592 103.977 455.271 103.309 452.342 101.975C449.445 100.607 446.987 98.752 444.969 96.4082C442.983 94.0645 441.469 91.3301 440.428 88.2051C439.386 85.0801 438.865 81.7598 438.865 78.2441ZM450.389 78.2441C450.389 80.4577 450.665 82.541 451.219 84.4941C451.772 86.4473 452.553 88.1562 453.562 89.6211C454.604 91.0859 455.857 92.2415 457.322 93.0879C458.787 93.9342 460.431 94.3574 462.254 94.3574C464.077 94.3574 465.721 93.9342 467.186 93.0879C468.683 92.2415 469.952 91.0859 470.994 89.6211C472.036 88.1562 472.833 86.4473 473.387 84.4941C473.94 82.541 474.217 80.4577 474.217 78.2441C474.217 76.0306 473.94 73.9473 473.387 71.9941C472.833 70.0085 472.036 68.2832 470.994 66.8184C469.952 65.3535 468.683 64.1979 467.186 63.3516C465.721 62.4727 464.077 62.0332 462.254 62.0332C460.431 62.0332 458.787 62.4727 457.322 63.3516C455.857 64.1979 454.604 65.3535 453.562 66.8184C452.553 68.2832 451.772 70.0085 451.219 71.9941C450.665 73.9473 450.389 76.0306 450.389 78.2441Z"/>
</mask>
<path d="M185.975 79.1719C186.137 81.5156 186.609 83.6641 187.391 85.6172C188.204 87.5378 189.262 89.1979 190.564 90.5977C191.867 91.9974 193.396 93.0879 195.154 93.8691C196.912 94.6178 198.849 94.9922 200.965 94.9922C202.82 94.9922 204.594 94.7969 206.287 94.4062C208.012 94.0156 209.526 93.3809 210.828 92.502C212.13 91.623 213.172 90.4837 213.953 89.084C214.734 87.6517 215.125 85.9102 215.125 83.8594C215.125 82.0039 214.555 80.4577 213.416 79.2207C212.309 77.9512 210.844 76.8444 209.021 75.9004C207.199 74.9564 205.115 74.11 202.771 73.3613C200.428 72.6126 198.035 71.8314 195.594 71.0176C193.185 70.2038 190.809 69.2923 188.465 68.2832C186.121 67.2415 184.038 65.9883 182.215 64.5234C180.392 63.026 178.911 61.2357 177.771 59.1523C176.665 57.069 176.111 54.5625 176.111 51.6328C176.111 48.638 176.697 46.0013 177.869 43.7227C179.041 41.4115 180.685 39.4746 182.801 37.9121C184.949 36.3496 187.488 35.1777 190.418 34.3965C193.38 33.5827 196.619 33.1758 200.135 33.1758C204.822 33.1758 208.712 33.8594 211.805 35.2266C214.93 36.5938 217.436 38.3678 219.324 40.5488C221.212 42.6973 222.579 45.0898 223.426 47.7266C224.272 50.3633 224.777 52.9512 224.939 55.4902H213.172C212.977 53.3092 212.505 51.4212 211.756 49.8262C211.04 48.2311 210.096 46.9128 208.924 45.8711C207.752 44.8294 206.417 44.0645 204.92 43.5762C203.423 43.0553 201.827 42.7949 200.135 42.7949C198.605 42.7949 197.091 42.9577 195.594 43.2832C194.096 43.5762 192.762 44.0807 191.59 44.7969C190.418 45.4805 189.474 46.3919 188.758 47.5312C188.042 48.638 187.684 50.0052 187.684 51.6328C187.684 53.5208 188.237 55.1159 189.344 56.418C190.483 57.6875 191.964 58.8105 193.787 59.7871C195.61 60.7311 197.693 61.5938 200.037 62.375C202.381 63.1237 204.773 63.9212 207.215 64.7676C209.656 65.5814 212.049 66.4928 214.393 67.502C216.736 68.5111 218.82 69.748 220.643 71.2129C222.465 72.6777 223.93 74.4355 225.037 76.4863C226.176 78.5371 226.746 80.9948 226.746 83.8594C226.746 87.3424 226.095 90.3861 224.793 92.9902C223.523 95.5944 221.733 97.7591 219.422 99.4844C217.143 101.21 214.425 102.512 211.268 103.391C208.143 104.27 204.708 104.709 200.965 104.709C197.612 104.709 194.357 104.123 191.199 102.951C188.042 101.779 185.21 100.087 182.703 97.873C180.229 95.6595 178.211 92.9902 176.648 89.8652C175.118 86.7077 174.305 83.1432 174.207 79.1719H185.975ZM248.24 81.2227C248.436 83.013 248.859 84.722 249.51 86.3496C250.161 87.9447 250.991 89.3607 252 90.5977C253.009 91.8021 254.181 92.7624 255.516 93.4785C256.85 94.1947 258.283 94.5527 259.812 94.5527C262.645 94.5527 264.988 93.7878 266.844 92.2578C268.732 90.6953 270.229 88.3678 271.336 85.2754H281.98C281.329 88.2376 280.271 90.8743 278.807 93.1855C277.374 95.4967 275.665 97.4499 273.68 99.0449C271.694 100.64 269.497 101.861 267.088 102.707C264.712 103.553 262.254 103.977 259.715 103.977C256.134 103.977 252.911 103.26 250.047 101.828C247.182 100.396 244.741 98.4753 242.723 96.0664C240.704 93.6576 239.142 90.8581 238.035 87.668C236.961 84.4453 236.424 81.0599 236.424 77.5117C236.424 74.1914 236.961 71.0176 238.035 67.9902C239.142 64.9303 240.704 62.2448 242.723 59.9336C244.741 57.5898 247.182 55.7344 250.047 54.3672C252.944 53 256.183 52.3164 259.764 52.3164C263.214 52.3164 266.339 52.9349 269.139 54.1719C271.938 55.4089 274.331 57.1341 276.316 59.3477C278.302 61.5286 279.816 64.1165 280.857 67.1113C281.932 70.0736 282.469 73.2799 282.469 76.7305V81.2227H248.24ZM270.75 72.4824C270.555 70.9199 270.148 69.5039 269.529 68.2344C268.943 66.9648 268.162 65.8743 267.186 64.9629C266.209 64.0189 265.053 63.3027 263.719 62.8145C262.384 62.2936 260.919 62.0332 259.324 62.0332C257.859 62.0332 256.492 62.3099 255.223 62.8633C253.986 63.4167 252.879 64.1654 251.902 65.1094C250.958 66.0534 250.161 67.1602 249.51 68.4297C248.891 69.6992 248.468 71.0501 248.24 72.4824H270.75ZM304.598 34.9336V103H293.074V34.9336H304.598ZM329.07 34.9336V103H317.547V34.9336H329.07ZM345.438 34.8848H372.391C375.906 34.8848 379.015 35.487 381.717 36.6914C384.419 37.8958 386.681 39.4746 388.504 41.4277C390.359 43.3483 391.759 45.513 392.703 47.9219C393.68 50.3307 394.168 52.7559 394.168 55.1973C394.168 57.7689 393.68 60.2917 392.703 62.7656C391.759 65.207 390.359 67.388 388.504 69.3086C386.648 71.1966 384.37 72.7266 381.668 73.8984C378.966 75.0378 375.874 75.6074 372.391 75.6074H356.961V103H345.438V34.8848ZM356.961 65.9395H369.949C372.326 65.9395 374.311 65.6628 375.906 65.1094C377.534 64.5234 378.836 63.7422 379.812 62.7656C380.822 61.7891 381.538 60.6497 381.961 59.3477C382.417 58.013 382.645 56.5807 382.645 55.0508C382.645 53.5534 382.368 52.1699 381.814 50.9004C381.261 49.5983 380.447 48.4915 379.373 47.5801C378.299 46.6361 376.964 45.9036 375.369 45.3828C373.807 44.862 372 44.6016 369.949 44.6016H356.961V65.9395ZM406.678 53.293H415.223L417.127 59.3965C418.624 57.0527 420.171 55.2949 421.766 54.123C423.393 52.9186 425.167 52.3164 427.088 52.3164C427.674 52.3164 428.618 52.4466 429.92 52.707C431.222 52.9349 432.785 53.5534 434.607 54.5625V64.5234C433.403 64.0677 432.361 63.7096 431.482 63.4492C430.636 63.1888 429.92 63.0098 429.334 62.9121C428.781 62.7819 428.341 62.7168 428.016 62.7168C427.723 62.6842 427.511 62.668 427.381 62.668C425.949 62.668 424.663 62.9772 423.523 63.5957C422.384 64.1816 421.424 64.9792 420.643 65.9883C419.861 66.9648 419.259 68.1042 418.836 69.4062C418.413 70.7083 418.201 72.0592 418.201 73.459V103H406.678V53.293ZM438.865 78.2441C438.865 74.696 439.386 71.3594 440.428 68.2344C441.469 65.0768 442.983 62.3262 444.969 59.9824C446.954 57.6061 449.396 55.7344 452.293 54.3672C455.223 53 458.543 52.3164 462.254 52.3164C465.965 52.3164 469.269 53 472.166 54.3672C475.096 55.7344 477.553 57.6061 479.539 59.9824C481.557 62.3262 483.087 65.0768 484.129 68.2344C485.203 71.3594 485.74 74.696 485.74 78.2441C485.74 81.7598 485.219 85.0801 484.178 88.2051C483.136 91.3301 481.606 94.0645 479.588 96.4082C477.602 98.752 475.145 100.607 472.215 101.975C469.318 103.309 466.014 103.977 462.303 103.977C458.592 103.977 455.271 103.309 452.342 101.975C449.445 100.607 446.987 98.752 444.969 96.4082C442.983 94.0645 441.469 91.3301 440.428 88.2051C439.386 85.0801 438.865 81.7598 438.865 78.2441ZM450.389 78.2441C450.389 80.4577 450.665 82.541 451.219 84.4941C451.772 86.4473 452.553 88.1562 453.562 89.6211C454.604 91.0859 455.857 92.2415 457.322 93.0879C458.787 93.9342 460.431 94.3574 462.254 94.3574C464.077 94.3574 465.721 93.9342 467.186 93.0879C468.683 92.2415 469.952 91.0859 470.994 89.6211C472.036 88.1562 472.833 86.4473 473.387 84.4941C473.94 82.541 474.217 80.4577 474.217 78.2441C474.217 76.0306 473.94 73.9473 473.387 71.9941C472.833 70.0085 472.036 68.2832 470.994 66.8184C469.952 65.3535 468.683 64.1979 467.186 63.3516C465.721 62.4727 464.077 62.0332 462.254 62.0332C460.431 62.0332 458.787 62.4727 457.322 63.3516C455.857 64.1979 454.604 65.3535 453.562 66.8184C452.553 68.2832 451.772 70.0085 451.219 71.9941C450.665 73.9473 450.389 76.0306 450.389 78.2441Z" fill="#1C272A"/>
<path d="M185.975 79.1719L186.274 79.1511L186.254 78.8719H185.975V79.1719ZM187.391 85.6172L187.112 85.7286L187.114 85.7342L187.391 85.6172ZM190.564 90.5977L190.345 90.802L190.564 90.5977ZM195.154 93.8691L195.032 94.1433L195.037 94.1451L195.154 93.8691ZM206.287 94.4062L206.221 94.1137L206.22 94.1139L206.287 94.4062ZM213.953 89.084L214.215 89.2302L214.216 89.2276L213.953 89.084ZM213.416 79.2207L213.19 79.4179L213.195 79.4239L213.416 79.2207ZM195.594 71.0176L195.498 71.3018L195.499 71.3022L195.594 71.0176ZM188.465 68.2832L188.343 68.5574L188.346 68.5587L188.465 68.2832ZM182.215 64.5234L182.024 64.7553L182.027 64.7573L182.215 64.5234ZM177.771 59.1523L177.507 59.2931L177.508 59.2963L177.771 59.1523ZM177.869 43.7227L178.136 43.8599L178.137 43.8583L177.869 43.7227ZM182.801 37.9121L182.624 37.6695L182.623 37.6708L182.801 37.9121ZM190.418 34.3965L190.495 34.6864L190.497 34.6858L190.418 34.3965ZM211.805 35.2266L211.683 35.5009L211.684 35.5014L211.805 35.2266ZM219.324 40.5488L219.097 40.7452L219.099 40.7469L219.324 40.5488ZM224.939 55.4902V55.7902H225.259L225.239 55.471L224.939 55.4902ZM213.172 55.4902L212.873 55.517L212.898 55.7902H213.172V55.4902ZM211.756 49.8262L211.482 49.9491L211.484 49.9536L211.756 49.8262ZM204.92 43.5762L204.821 43.8596L204.827 43.8614L204.92 43.5762ZM195.594 43.2832L195.651 43.5777L195.657 43.5764L195.594 43.2832ZM191.59 44.7969L191.741 45.0561L191.746 45.0529L191.59 44.7969ZM188.758 47.5312L189.01 47.6942L189.012 47.6909L188.758 47.5312ZM189.344 56.418L189.115 56.6123L189.12 56.6183L189.344 56.418ZM193.787 59.7871L193.645 60.0516L193.649 60.0535L193.787 59.7871ZM200.037 62.375L199.942 62.6596L199.946 62.6608L200.037 62.375ZM207.215 64.7676L207.117 65.051L207.12 65.0522L207.215 64.7676ZM220.643 71.2129L220.83 70.979L220.643 71.2129ZM225.037 76.4863L224.773 76.6288L224.775 76.632L225.037 76.4863ZM224.793 92.9902L224.525 92.8561L224.523 92.8588L224.793 92.9902ZM219.422 99.4844L219.242 99.244L219.241 99.2452L219.422 99.4844ZM211.268 103.391L211.187 103.102L211.186 103.102L211.268 103.391ZM182.703 97.873L182.503 98.0966L182.505 98.0979L182.703 97.873ZM176.648 89.8652L176.378 89.9961L176.38 89.9994L176.648 89.8652ZM174.207 79.1719V78.8719H173.9L173.907 79.1792L174.207 79.1719ZM185.975 79.1719L185.675 79.1927C185.84 81.5639 186.318 83.7434 187.112 85.7286L187.391 85.6172L187.669 85.5058C186.901 83.5848 186.435 81.4673 186.274 79.1511L185.975 79.1719ZM187.391 85.6172L187.114 85.7342C187.941 87.684 189.017 89.3744 190.345 90.802L190.564 90.5977L190.784 90.3933C189.508 89.0214 188.468 87.3915 187.667 85.5001L187.391 85.6172ZM190.564 90.5977L190.345 90.802C191.675 92.2315 193.238 93.3457 195.032 94.1433L195.154 93.8691L195.276 93.595C193.555 92.8301 192.058 91.7632 190.784 90.3933L190.564 90.5977ZM195.154 93.8691L195.037 94.1451C196.836 94.9113 198.813 95.2922 200.965 95.2922V94.9922V94.6922C198.885 94.6922 196.989 94.3244 195.272 93.5931L195.154 93.8691ZM200.965 94.9922V95.2922C202.841 95.2922 204.638 95.0946 206.355 94.6986L206.287 94.4062L206.22 94.1139C204.551 94.4991 202.799 94.6922 200.965 94.6922V94.9922ZM206.287 94.4062L206.353 94.6988C208.11 94.301 209.659 93.6528 210.996 92.7506L210.828 92.502L210.66 92.2533C209.393 93.1089 207.914 93.7302 206.221 94.1137L206.287 94.4062ZM210.828 92.502L210.996 92.7506C212.338 91.8448 213.411 90.6701 214.215 89.2302L213.953 89.084L213.691 88.9378C212.932 90.2973 211.923 91.4012 210.66 92.2533L210.828 92.502ZM213.953 89.084L214.216 89.2276C215.027 87.7414 215.425 85.9477 215.425 83.8594H215.125H214.825C214.825 85.8726 214.442 87.562 213.69 88.9403L213.953 89.084ZM215.125 83.8594H215.425C215.425 81.937 214.832 80.3157 213.637 79.0175L213.416 79.2207L213.195 79.4239C214.278 80.5996 214.825 82.0708 214.825 83.8594H215.125ZM213.416 79.2207L213.642 79.0236C212.506 77.7201 211.009 76.5917 209.159 75.634L209.021 75.9004L208.884 76.1668C210.68 77.0971 212.113 78.1822 213.19 79.4178L213.416 79.2207ZM209.021 75.9004L209.159 75.634C207.319 74.6809 205.22 73.8284 202.863 73.0756L202.771 73.3613L202.68 73.6471C205.011 74.3916 207.078 75.2319 208.884 76.1668L209.021 75.9004ZM202.771 73.3613L202.863 73.0756C200.52 72.3273 198.129 71.5464 195.689 70.733L195.594 71.0176L195.499 71.3022C197.941 72.1164 200.335 72.898 202.68 73.6471L202.771 73.3613ZM195.594 71.0176L195.69 70.7334C193.289 69.9222 190.92 69.0136 188.583 68.0077L188.465 68.2832L188.346 68.5587C190.697 69.571 193.081 70.4854 195.498 71.3018L195.594 71.0176ZM188.465 68.2832L188.587 68.0091C186.264 66.9769 184.204 65.7367 182.403 64.2896L182.215 64.5234L182.027 64.7573C183.872 66.2398 185.978 67.5062 188.343 68.5573L188.465 68.2832ZM182.215 64.5234L182.405 64.2916C180.612 62.8188 179.156 61.0583 178.035 59.0084L177.771 59.1523L177.508 59.2963C178.666 61.4131 180.172 63.2333 182.024 64.7553L182.215 64.5234ZM177.771 59.1523L178.036 59.0116C176.958 56.9809 176.411 54.5251 176.411 51.6328H176.111H175.811C175.811 54.5999 176.372 57.1572 177.507 59.2931L177.771 59.1523ZM176.111 51.6328H176.411C176.411 48.6777 176.989 46.0894 178.136 43.8599L177.869 43.7227L177.602 43.5855C176.405 45.9132 175.811 48.5983 175.811 51.6328H176.111ZM177.869 43.7227L178.137 43.8583C179.287 41.5895 180.9 39.6886 182.979 38.1534L182.801 37.9121L182.623 37.6708C180.47 39.2606 178.795 41.2334 177.602 43.587L177.869 43.7227ZM182.801 37.9121L182.977 38.1547C185.092 36.6168 187.596 35.4594 190.495 34.6864L190.418 34.3965L190.341 34.1066C187.38 34.896 184.807 36.0824 182.624 37.6695L182.801 37.9121ZM190.418 34.3965L190.497 34.6858C193.43 33.88 196.642 33.4758 200.135 33.4758V33.1758V32.8758C196.596 32.8758 193.33 33.2853 190.338 34.1072L190.418 34.3965ZM200.135 33.1758V33.4758C204.796 33.4758 208.641 34.1558 211.683 35.5009L211.805 35.2266L211.926 34.9522C208.784 33.5629 204.849 32.8758 200.135 32.8758V33.1758ZM211.805 35.2266L211.684 35.5014C214.776 36.8539 217.243 38.6036 219.097 40.7452L219.324 40.5488L219.551 40.3525C217.629 38.1321 215.083 36.3336 211.925 34.9517L211.805 35.2266ZM219.324 40.5488L219.099 40.7469C220.961 42.8654 222.307 45.222 223.14 47.8183L223.426 47.7266L223.711 47.6349C222.852 44.9576 221.464 42.5291 219.55 40.3508L219.324 40.5488ZM223.426 47.7266L223.14 47.8183C223.98 50.4335 224.479 52.9971 224.64 55.5094L224.939 55.4902L225.239 55.471C225.074 52.9053 224.565 50.293 223.711 47.6349L223.426 47.7266ZM224.939 55.4902V55.1902H213.172V55.4902V55.7902H224.939V55.4902ZM213.172 55.4902L213.471 55.4635C213.273 53.2557 212.794 51.3321 212.027 49.6987L211.756 49.8262L211.484 49.9536C212.215 51.5103 212.68 53.3628 212.873 55.517L213.172 55.4902ZM211.756 49.8262L212.03 49.7033C211.298 48.0741 210.33 46.7198 209.123 45.6469L208.924 45.8711L208.725 46.0953C209.861 47.1057 210.781 48.3882 211.482 49.949L211.756 49.8262ZM208.924 45.8711L209.123 45.6469C207.92 44.5776 206.549 43.792 205.013 43.291L204.92 43.5762L204.827 43.8614C206.285 44.3369 207.584 45.0812 208.725 46.0953L208.924 45.8711ZM204.92 43.5762L205.018 43.2928C203.487 42.7602 201.859 42.4949 200.135 42.4949V42.7949V43.0949C201.796 43.0949 203.358 43.3504 204.821 43.8595L204.92 43.5762ZM200.135 42.7949V42.4949C198.583 42.4949 197.048 42.66 195.53 42.9901L195.594 43.2832L195.657 43.5764C197.134 43.2554 198.626 43.0949 200.135 43.0949V42.7949ZM195.594 43.2832L195.536 42.9888C194.008 43.2878 192.639 43.8042 191.433 44.5409L191.59 44.7969L191.746 45.0529C192.885 44.3572 194.185 43.8645 195.651 43.5776L195.594 43.2832ZM191.59 44.7969L191.439 44.5377C190.225 45.2455 189.246 46.191 188.504 47.3716L188.758 47.5312L189.012 47.6909C189.702 46.5929 190.611 45.7154 191.741 45.056L191.59 44.7969ZM188.758 47.5312L188.506 47.3683C187.752 48.5339 187.384 49.961 187.384 51.6328H187.684H187.984C187.984 50.0494 188.332 48.7422 189.01 47.6942L188.758 47.5312ZM187.684 51.6328H187.384C187.384 53.584 187.957 55.2501 189.115 56.6123L189.344 56.418L189.572 56.2237C188.517 54.9816 187.984 53.4576 187.984 51.6328H187.684ZM189.344 56.418L189.12 56.6183C190.287 57.9187 191.798 59.0619 193.645 60.0516L193.787 59.7871L193.929 59.5227C192.13 58.5592 190.679 57.4563 189.567 56.2176L189.344 56.418ZM193.787 59.7871L193.649 60.0535C195.488 61.006 197.587 61.8744 199.942 62.6596L200.037 62.375L200.132 62.0904C197.8 61.3131 195.732 60.4563 193.925 59.5207L193.787 59.7871ZM200.037 62.375L199.946 62.6608C202.287 63.4087 204.677 64.2054 207.117 65.051L207.215 64.7676L207.313 64.4841C204.87 63.637 202.475 62.8387 200.128 62.0892L200.037 62.375ZM207.215 64.7676L207.12 65.0522C209.553 65.8633 211.938 66.7718 214.274 67.7775L214.393 67.502L214.511 67.2264C212.16 66.2139 209.759 65.2994 207.31 64.483L207.215 64.7676ZM214.393 67.502L214.274 67.7775C216.595 68.7769 218.655 70.0003 220.455 71.4467L220.643 71.2129L220.83 70.979C218.985 69.4958 216.878 68.2453 214.511 67.2264L214.393 67.502ZM220.643 71.2129L220.455 71.4467C222.246 72.8866 223.685 74.6134 224.773 76.6288L225.037 76.4863L225.301 76.3438C224.175 74.2577 222.685 72.4689 220.83 70.979L220.643 71.2129ZM225.037 76.4863L224.775 76.632C225.885 78.6294 226.446 81.0346 226.446 83.8594H226.746H227.046C227.046 80.955 226.468 78.4448 225.299 76.3406L225.037 76.4863ZM226.746 83.8594H226.446C226.446 87.3049 225.802 90.301 224.525 92.8561L224.793 92.9902L225.061 93.1244C226.388 90.4712 227.046 87.38 227.046 83.8594H226.746ZM224.793 92.9902L224.523 92.8588C223.275 95.4202 221.515 97.5474 219.242 99.244L219.422 99.4844L219.601 99.7248C221.951 97.9708 223.772 95.7686 225.063 93.1217L224.793 92.9902ZM219.422 99.4844L219.241 99.2452C216.996 100.945 214.314 102.231 211.187 103.102L211.268 103.391L211.348 103.68C214.537 102.792 217.29 101.475 219.603 99.7236L219.422 99.4844ZM211.268 103.391L211.186 103.102C208.091 103.972 204.685 104.409 200.965 104.409V104.709V105.009C204.732 105.009 208.194 104.567 211.349 103.679L211.268 103.391ZM200.965 104.709V104.409C197.648 104.409 194.428 103.829 191.304 102.67L191.199 102.951L191.095 103.232C194.286 104.417 197.576 105.009 200.965 105.009V104.709ZM191.199 102.951L191.304 102.67C188.18 101.511 185.38 99.8371 182.902 97.6482L182.703 97.873L182.505 98.0979C185.039 100.336 187.903 102.048 191.095 103.232L191.199 102.951ZM182.703 97.873L182.903 97.6495C180.459 95.4625 178.463 92.824 176.917 89.7311L176.648 89.8652L176.38 89.9994C177.959 93.1564 179.999 95.8565 182.503 98.0966L182.703 97.873ZM176.648 89.8652L176.918 89.7344C175.409 86.6202 174.604 83.0987 174.507 79.1645L174.207 79.1719L173.907 79.1792C174.006 83.1878 174.828 86.7952 176.378 89.996L176.648 89.8652ZM174.207 79.1719V79.4719H185.975V79.1719V78.8719H174.207V79.1719ZM248.24 81.2227V80.9227H247.906L247.942 81.2552L248.24 81.2227ZM249.51 86.3496L249.231 86.461L249.232 86.463L249.51 86.3496ZM252 90.5977L251.768 90.7873L251.77 90.7903L252 90.5977ZM266.844 92.2578L267.035 92.4893L267.035 92.4889L266.844 92.2578ZM271.336 85.2754V84.9754H271.125L271.053 85.1743L271.336 85.2754ZM281.98 85.2754L282.273 85.3398L282.354 84.9754H281.98V85.2754ZM278.807 93.1855L278.553 93.0249L278.552 93.0275L278.807 93.1855ZM267.088 102.707L266.988 102.424L266.987 102.424L267.088 102.707ZM250.047 101.828L249.913 102.096L250.047 101.828ZM242.723 96.0664L242.493 96.2591L242.723 96.0664ZM238.035 87.668L237.751 87.7628L237.752 87.7663L238.035 87.668ZM238.035 67.9902L237.753 67.8882L237.752 67.8899L238.035 67.9902ZM242.723 59.9336L242.949 60.1309L242.95 60.1294L242.723 59.9336ZM250.047 54.3672L249.919 54.0959L249.918 54.0964L250.047 54.3672ZM269.139 54.1719L269.26 53.8975L269.139 54.1719ZM276.316 59.3477L276.093 59.548L276.095 59.5496L276.316 59.3477ZM280.857 67.1113L280.574 67.2099L280.575 67.2136L280.857 67.1113ZM282.469 81.2227V81.5227H282.769V81.2227H282.469ZM270.75 72.4824V72.7824H271.09L271.048 72.4452L270.75 72.4824ZM269.529 68.2344L269.257 68.3601L269.26 68.3658L269.529 68.2344ZM267.186 64.9629L266.977 65.1786L266.981 65.1822L267.186 64.9629ZM263.719 62.8145L263.61 63.094L263.616 63.0962L263.719 62.8145ZM255.223 62.8633L255.103 62.5883L255.1 62.5894L255.223 62.8633ZM251.902 65.1094L251.694 64.8936L251.69 64.8972L251.902 65.1094ZM249.51 68.4297L249.243 68.2928L249.24 68.2983L249.51 68.4297ZM248.24 72.4824L247.944 72.4353L247.889 72.7824H248.24V72.4824ZM248.24 81.2227L247.942 81.2552C248.14 83.0719 248.57 84.8075 249.231 86.461L249.51 86.3496L249.788 86.2382C249.148 84.6366 248.731 82.9542 248.538 81.1901L248.24 81.2227ZM249.51 86.3496L249.232 86.463C249.893 88.0834 250.738 89.5255 251.768 90.7873L252 90.5977L252.232 90.408C251.244 89.1958 250.428 87.8059 249.788 86.2362L249.51 86.3496ZM252 90.5977L251.77 90.7903C252.803 92.0229 254.004 93.008 255.374 93.7429L255.516 93.4785L255.657 93.2142C254.358 92.5168 253.215 91.5812 252.23 90.405L252 90.5977ZM255.516 93.4785L255.374 93.7429C256.752 94.4827 258.234 94.8527 259.812 94.8527V94.5527V94.2527C258.332 94.2527 256.948 93.9067 255.657 93.2142L255.516 93.4785ZM259.812 94.5527V94.8527C262.701 94.8527 265.116 94.0711 267.035 92.4893L266.844 92.2578L266.653 92.0264C264.86 93.5044 262.588 94.2527 259.812 94.2527V94.5527ZM266.844 92.2578L267.035 92.4889C268.976 90.8823 270.499 88.503 271.618 85.3765L271.336 85.2754L271.053 85.1743C269.959 88.2327 268.487 90.5083 266.652 92.0267L266.844 92.2578ZM271.336 85.2754V85.5754H281.98V85.2754V84.9754H271.336V85.2754ZM281.98 85.2754L281.687 85.211C281.043 88.1428 279.997 90.7463 278.553 93.0249L278.807 93.1855L279.06 93.3461C280.546 91.0024 281.616 88.3325 282.273 85.3398L281.98 85.2754ZM278.807 93.1855L278.552 93.0275C277.136 95.3118 275.449 97.2387 273.492 98.811L273.68 99.0449L273.868 99.2788C275.881 97.6611 277.613 95.6817 279.062 93.3436L278.807 93.1855ZM273.68 99.0449L273.492 98.811C271.533 100.385 269.365 101.589 266.988 102.424L267.088 102.707L267.187 102.99C269.628 102.132 271.855 100.895 273.868 99.2788L273.68 99.0449ZM267.088 102.707L266.987 102.424C264.643 103.259 262.22 103.677 259.715 103.677V103.977V104.277C262.288 104.277 264.78 103.848 267.189 102.99L267.088 102.707ZM259.715 103.977V103.677C256.175 103.677 252.999 102.969 250.181 101.56L250.047 101.828L249.913 102.096C252.824 103.552 256.093 104.277 259.715 104.277V103.977ZM250.047 101.828L250.181 101.56C247.353 100.146 244.944 98.2505 242.953 95.8737L242.723 96.0664L242.493 96.2591C244.538 98.7001 247.012 100.646 249.913 102.096L250.047 101.828ZM242.723 96.0664L242.953 95.8737C240.959 93.4948 239.414 90.7279 238.319 87.5696L238.035 87.668L237.752 87.7663C238.87 90.9883 240.449 93.8203 242.493 96.2591L242.723 96.0664ZM238.035 87.668L238.32 87.5731C237.256 84.3824 236.724 81.0291 236.724 77.5117H236.424H236.124C236.124 81.0907 236.666 84.5082 237.751 87.7628L238.035 87.668ZM236.424 77.5117H236.724C236.724 74.2244 237.255 71.0846 238.318 68.0906L238.035 67.9902L237.752 67.8899C236.666 70.9505 236.124 74.1584 236.124 77.5117H236.424ZM238.035 67.9902L238.317 68.0923C239.412 65.0652 240.956 62.4124 242.949 60.1309L242.723 59.9336L242.497 59.7363C240.453 62.0771 238.872 64.7955 237.753 67.8882L238.035 67.9902ZM242.723 59.9336L242.95 60.1294C244.94 57.818 247.348 55.9877 250.176 54.6379L250.047 54.3672L249.918 54.0964C247.017 55.4811 244.541 57.3617 242.495 59.7378L242.723 59.9336ZM250.047 54.3672L250.175 54.6385C253.028 53.2923 256.222 52.6164 259.764 52.6164V52.3164V52.0164C256.144 52.0164 252.861 52.7077 249.919 54.0959L250.047 54.3672ZM259.764 52.3164V52.6164C263.178 52.6164 266.261 53.2282 269.017 54.4463L269.139 54.1719L269.26 53.8975C266.418 52.6416 263.251 52.0164 259.764 52.0164V52.3164ZM269.139 54.1719L269.017 54.4463C271.779 55.6666 274.137 57.367 276.093 59.548L276.316 59.3477L276.54 59.1473C274.525 56.9012 272.097 55.1511 269.26 53.8975L269.139 54.1719ZM276.316 59.3477L276.095 59.5496C278.051 61.6985 279.545 64.2505 280.574 67.2099L280.857 67.1113L281.141 67.0128C280.087 63.9826 278.553 61.3588 276.538 59.1457L276.316 59.3477ZM280.857 67.1113L280.575 67.2136C281.637 70.1401 282.169 73.3115 282.169 76.7305H282.469H282.769C282.769 73.2484 282.227 70.0071 281.139 67.0091L280.857 67.1113ZM282.469 76.7305H282.169V81.2227H282.469H282.769V76.7305H282.469ZM282.469 81.2227V80.9227H248.24V81.2227V81.5227H282.469V81.2227ZM270.75 72.4824L271.048 72.4452C270.849 70.8537 270.433 69.4054 269.799 68.103L269.529 68.2344L269.26 68.3658C269.862 69.6025 270.261 70.9861 270.452 72.5196L270.75 72.4824ZM269.529 68.2344L269.802 68.1087C269.2 66.8055 268.397 65.6828 267.39 64.7436L267.186 64.9629L266.981 65.1822C267.928 66.0659 268.686 67.1242 269.257 68.3601L269.529 68.2344ZM267.186 64.9629L267.394 64.7472C266.386 63.7727 265.194 63.0347 263.822 62.5327L263.719 62.8145L263.616 63.0962C264.913 63.5707 266.032 64.2651 266.977 65.1786L267.186 64.9629ZM263.719 62.8145L263.828 62.535C262.455 61.9991 260.952 61.7332 259.324 61.7332V62.0332V62.3332C260.886 62.3332 262.314 62.5881 263.61 63.0939L263.719 62.8145ZM259.324 62.0332V61.7332C257.821 61.7332 256.412 62.0175 255.103 62.5883L255.223 62.8633L255.343 63.1383C256.572 62.6023 257.898 62.3332 259.324 62.3332V62.0332ZM255.223 62.8633L255.1 62.5894C253.831 63.1571 252.695 63.9255 251.694 64.8937L251.902 65.1094L252.111 65.3251C253.062 64.4052 254.14 63.6762 255.345 63.1371L255.223 62.8633ZM251.902 65.1094L251.69 64.8972C250.723 65.8648 249.907 66.9974 249.243 68.2928L249.51 68.4297L249.777 68.5666C250.414 67.3229 251.194 66.242 252.114 65.3215L251.902 65.1094ZM249.51 68.4297L249.24 68.2983C248.608 69.5952 248.176 70.9745 247.944 72.4353L248.24 72.4824L248.537 72.5296C248.76 71.1257 249.174 69.8033 249.779 68.5611L249.51 68.4297ZM248.24 72.4824V72.7824H270.75V72.4824V72.1824H248.24V72.4824ZM304.598 34.9336H304.898V34.6336H304.598V34.9336ZM304.598 103V103.3H304.898V103H304.598ZM293.074 103H292.774V103.3H293.074V103ZM293.074 34.9336V34.6336H292.774V34.9336H293.074ZM304.598 34.9336H304.298V103H304.598H304.898V34.9336H304.598ZM304.598 103V102.7H293.074V103V103.3H304.598V103ZM293.074 103H293.374V34.9336H293.074H292.774V103H293.074ZM293.074 34.9336V35.2336H304.598V34.9336V34.6336H293.074V34.9336ZM329.07 34.9336H329.37V34.6336H329.07V34.9336ZM329.07 103V103.3H329.37V103H329.07ZM317.547 103H317.247V103.3H317.547V103ZM317.547 34.9336V34.6336H317.247V34.9336H317.547ZM329.07 34.9336H328.77V103H329.07H329.37V34.9336H329.07ZM329.07 103V102.7H317.547V103V103.3H329.07V103ZM317.547 103H317.847V34.9336H317.547H317.247V103H317.547ZM317.547 34.9336V35.2336H329.07V34.9336V34.6336H317.547V34.9336ZM345.438 34.8848V34.5848H345.137V34.8848H345.438ZM388.504 41.4277L388.285 41.6325L388.288 41.6362L388.504 41.4277ZM392.703 47.9219L392.424 48.0313L392.425 48.0346L392.703 47.9219ZM392.703 62.7656L392.424 62.6555L392.423 62.6574L392.703 62.7656ZM388.504 69.3086L388.718 69.5189L388.72 69.517L388.504 69.3086ZM381.668 73.8984L381.785 74.1749L381.787 74.1737L381.668 73.8984ZM356.961 75.6074V75.3074H356.661V75.6074H356.961ZM356.961 103V103.3H357.261V103H356.961ZM345.438 103H345.137V103.3H345.438V103ZM356.961 65.9395H356.661V66.2395H356.961V65.9395ZM375.906 65.1094L376.005 65.3928L376.008 65.3916L375.906 65.1094ZM379.812 62.7656L379.604 62.55L379.6 62.5535L379.812 62.7656ZM381.961 59.3477L381.677 59.2507L381.676 59.2549L381.961 59.3477ZM381.814 50.9004L381.538 51.0177L381.539 51.0203L381.814 50.9004ZM379.373 47.5801L379.175 47.8055L379.179 47.8088L379.373 47.5801ZM375.369 45.3828L375.274 45.6674L375.276 45.668L375.369 45.3828ZM356.961 44.6016V44.3016H356.661V44.6016H356.961ZM345.438 34.8848V35.1848H372.391V34.8848V34.5848H345.438V34.8848ZM372.391 34.8848V35.1848C375.872 35.1848 378.938 35.781 381.595 36.9654L381.717 36.6914L381.839 36.4174C379.092 35.1929 375.941 34.5848 372.391 34.5848V34.8848ZM381.717 36.6914L381.595 36.9654C384.264 38.1552 386.492 39.7117 388.285 41.6324L388.504 41.4277L388.723 41.223C386.87 39.2375 384.574 37.6364 381.839 36.4174L381.717 36.6914ZM388.504 41.4277L388.288 41.6362C390.117 43.5292 391.495 45.6605 392.424 48.0313L392.703 47.9219L392.982 47.8124C392.024 45.3655 390.602 43.1674 388.72 41.2193L388.504 41.4277ZM392.703 47.9219L392.425 48.0346C393.388 50.41 393.868 52.7969 393.868 55.1973H394.168H394.468C394.468 52.7148 393.971 50.2515 392.981 47.8092L392.703 47.9219ZM394.168 55.1973H393.868C393.868 57.7299 393.387 60.2154 392.424 62.6555L392.703 62.7656L392.982 62.8758C393.972 60.368 394.468 57.8079 394.468 55.1973H394.168ZM392.703 62.7656L392.423 62.6574C391.494 65.0607 390.116 67.2078 388.288 69.1002L388.504 69.3086L388.72 69.517C390.602 67.5683 392.024 65.3533 392.983 62.8738L392.703 62.7656ZM388.504 69.3086L388.29 69.0983C386.464 70.9559 384.219 72.465 381.549 73.6232L381.668 73.8984L381.787 74.1737C384.521 72.9882 386.832 71.4374 388.718 69.5189L388.504 69.3086ZM381.668 73.8984L381.551 73.622C378.893 74.7431 375.841 75.3074 372.391 75.3074V75.6074V75.9074C375.906 75.9074 379.04 75.3324 381.785 74.1749L381.668 73.8984ZM372.391 75.6074V75.3074H356.961V75.6074V75.9074H372.391V75.6074ZM356.961 75.6074H356.661V103H356.961H357.261V75.6074H356.961ZM356.961 103V102.7H345.438V103V103.3H356.961V103ZM345.438 103H345.738V34.8848H345.438H345.137V103H345.438ZM356.961 65.9395V66.2395H369.949V65.9395V65.6395H356.961V65.9395ZM369.949 65.9395V66.2395C372.346 66.2395 374.368 65.9606 376.005 65.3928L375.906 65.1094L375.808 64.8259C374.254 65.3649 372.305 65.6395 369.949 65.6395V65.9395ZM375.906 65.1094L376.008 65.3916C377.667 64.7944 379.01 63.9924 380.025 62.9778L379.812 62.7656L379.6 62.5535C378.662 63.492 377.401 64.2525 375.805 64.8271L375.906 65.1094ZM379.812 62.7656L380.021 62.9812C381.065 61.9715 381.808 60.7903 382.246 59.4404L381.961 59.3477L381.676 59.2549C381.268 60.5092 380.579 61.6066 379.604 62.55L379.812 62.7656ZM381.961 59.3477L382.245 59.4446C382.712 58.0762 382.945 56.6109 382.945 55.0508H382.645H382.345C382.345 56.5505 382.121 57.9498 381.677 59.2507L381.961 59.3477ZM382.645 55.0508H382.945C382.945 53.5155 382.661 52.0908 382.089 50.7805L381.814 50.9004L381.539 51.0203C382.075 52.249 382.345 53.5912 382.345 55.0508H382.645ZM381.814 50.9004L382.091 50.783C381.519 49.4381 380.677 48.2932 379.567 47.3513L379.373 47.5801L379.179 47.8088C380.217 48.6899 381.003 49.7585 381.538 51.0177L381.814 50.9004ZM379.373 47.5801L379.571 47.3547C378.461 46.3796 377.089 45.6289 375.462 45.0976L375.369 45.3828L375.276 45.668C376.839 46.1784 378.136 46.8925 379.175 47.8054L379.373 47.5801ZM375.369 45.3828L375.464 45.0982C373.864 44.565 372.025 44.3016 369.949 44.3016V44.6016V44.9016C371.975 44.9016 373.749 45.1589 375.274 45.6674L375.369 45.3828ZM369.949 44.6016V44.3016H356.961V44.6016V44.9016H369.949V44.6016ZM356.961 44.6016H356.661V65.9395H356.961H357.261V44.6016H356.961ZM406.678 53.293V52.993H406.378V53.293H406.678ZM415.223 53.293L415.509 53.2036L415.443 52.993H415.223V53.293ZM417.127 59.3965L416.841 59.4858L417.033 60.1014L417.38 59.558L417.127 59.3965ZM421.766 54.123L421.943 54.3648L421.944 54.3642L421.766 54.123ZM429.92 52.707L429.861 53.0013L429.868 53.0025L429.92 52.707ZM434.607 54.5625H434.907V54.3857L434.753 54.3L434.607 54.5625ZM434.607 64.5234L434.501 64.804L434.907 64.9577V64.5234H434.607ZM431.482 63.4492L431.394 63.736L431.397 63.7369L431.482 63.4492ZM429.334 62.9121L429.265 63.2041L429.275 63.2064L429.285 63.208L429.334 62.9121ZM428.016 62.7168L427.982 63.015L427.999 63.0168H428.016V62.7168ZM423.523 63.5957L423.661 63.8626L423.667 63.8594L423.523 63.5957ZM420.643 65.9883L420.877 66.1757L420.88 66.1719L420.643 65.9883ZM418.201 103V103.3H418.501V103H418.201ZM406.678 103H406.378V103.3H406.678V103ZM406.678 53.293V53.593H415.223V53.293V52.993H406.678V53.293ZM415.223 53.293L414.936 53.3823L416.841 59.4858L417.127 59.3965L417.413 59.3071L415.509 53.2036L415.223 53.293ZM417.127 59.3965L417.38 59.558C418.865 57.2337 420.387 55.5079 421.943 54.3648L421.766 54.123L421.588 53.8813C419.954 55.082 418.384 56.8717 416.874 59.235L417.127 59.3965ZM421.766 54.123L421.944 54.3642C423.523 53.1958 425.235 52.6164 427.088 52.6164V52.3164V52.0164C425.099 52.0164 423.263 52.6415 421.587 53.8819L421.766 54.123ZM427.088 52.3164V52.6164C427.642 52.6164 428.56 52.7411 429.861 53.0012L429.92 52.707L429.979 52.4129C428.675 52.1522 427.706 52.0164 427.088 52.0164V52.3164ZM429.92 52.707L429.868 53.0025C431.124 53.2223 432.654 53.8238 434.462 54.825L434.607 54.5625L434.753 54.3C432.915 53.283 431.32 52.6475 429.972 52.4115L429.92 52.707ZM434.607 54.5625H434.307V64.5234H434.607H434.907V54.5625H434.607ZM434.607 64.5234L434.714 64.2429C433.505 63.7855 432.456 63.4247 431.568 63.1616L431.482 63.4492L431.397 63.7369C432.267 63.9945 433.301 64.3499 434.501 64.804L434.607 64.5234ZM431.482 63.4492L431.571 63.1625C430.717 62.8998 429.987 62.7168 429.383 62.6162L429.334 62.9121L429.285 63.208C429.853 63.3027 430.555 63.4778 431.394 63.736L431.482 63.4492ZM429.334 62.9121L429.403 62.6201C428.841 62.4879 428.375 62.4168 428.016 62.4168V62.7168V63.0168C428.307 63.0168 428.72 63.0759 429.265 63.2041L429.334 62.9121ZM428.016 62.7168L428.049 62.4186C427.755 62.386 427.529 62.368 427.381 62.368V62.668V62.968C427.493 62.968 427.69 62.9825 427.982 63.015L428.016 62.7168ZM427.381 62.668V62.368C425.904 62.368 424.568 62.6873 423.38 63.332L423.523 63.5957L423.667 63.8594C424.757 63.2671 425.993 62.968 427.381 62.968V62.668ZM423.523 63.5957L423.386 63.3289C422.208 63.9348 421.214 64.7607 420.405 65.8046L420.643 65.9883L420.88 66.1719C421.634 65.1976 422.56 64.4284 423.661 63.8625L423.523 63.5957ZM420.643 65.9883L420.408 65.8009C419.602 66.8082 418.984 67.9803 418.551 69.3135L418.836 69.4062L419.121 69.499C419.534 68.228 420.12 67.1215 420.877 66.1757L420.643 65.9883ZM418.836 69.4062L418.551 69.3135C418.117 70.6462 417.901 72.0285 417.901 73.459H418.201H418.501C418.501 72.09 418.708 70.7704 419.121 69.499L418.836 69.4062ZM418.201 73.459H417.901V103H418.201H418.501V73.459H418.201ZM418.201 103V102.7H406.678V103V103.3H418.201V103ZM406.678 103H406.978V53.293H406.678H406.378V103H406.678ZM440.428 68.2344L440.712 68.3292L440.713 68.3284L440.428 68.2344ZM444.969 59.9824L445.198 60.1764L445.199 60.1748L444.969 59.9824ZM452.293 54.3672L452.166 54.0953L452.165 54.0959L452.293 54.3672ZM472.166 54.3672L472.038 54.6385L472.039 54.639L472.166 54.3672ZM479.539 59.9824L479.309 60.1748L479.312 60.1782L479.539 59.9824ZM484.129 68.2344L483.844 68.3284L483.845 68.3319L484.129 68.2344ZM479.588 96.4082L479.361 96.2124L479.359 96.2143L479.588 96.4082ZM472.215 101.975L472.34 102.247L472.342 102.246L472.215 101.975ZM452.342 101.975L452.214 102.246L452.217 102.248L452.342 101.975ZM444.969 96.4082L444.74 96.6021L444.741 96.604L444.969 96.4082ZM453.562 89.6211L453.315 89.7913L453.318 89.795L453.562 89.6211ZM467.186 93.0879L467.038 92.8267L467.035 92.8281L467.186 93.0879ZM473.387 71.9941L473.098 72.0747L473.098 72.0759L473.387 71.9941ZM467.186 63.3516L467.031 63.6089L467.038 63.6127L467.186 63.3516ZM457.322 63.3516L457.472 63.6114L457.477 63.6088L457.322 63.3516ZM453.562 66.8184L453.318 66.6445L453.315 66.6482L453.562 66.8184ZM451.219 71.9941L451.507 72.0759L451.508 72.0747L451.219 71.9941ZM438.865 78.2441H439.165C439.165 74.7257 439.682 71.4214 440.712 68.3292L440.428 68.2344L440.143 68.1395C439.091 71.2974 438.565 74.6662 438.565 78.2441H438.865ZM440.428 68.2344L440.713 68.3284C441.743 65.2044 443.239 62.4883 445.198 60.1763L444.969 59.9824L444.74 59.7885C442.727 62.164 441.196 64.9493 440.143 68.1404L440.428 68.2344ZM444.969 59.9824L445.199 60.1748C447.156 57.8331 449.562 55.9878 452.421 54.6385L452.293 54.3672L452.165 54.0959C449.23 55.481 446.753 57.3792 444.739 59.7901L444.969 59.9824ZM452.293 54.3672L452.42 54.639C455.304 53.2929 458.58 52.6164 462.254 52.6164V52.3164V52.0164C458.506 52.0164 455.141 52.7071 452.166 54.0953L452.293 54.3672ZM462.254 52.3164V52.6164C465.928 52.6164 469.187 53.293 472.038 54.6385L472.166 54.3672L472.294 54.0959C469.351 52.707 466.002 52.0164 462.254 52.0164V52.3164ZM472.166 54.3672L472.039 54.639C474.931 55.9885 477.353 57.8337 479.309 60.1748L479.539 59.9824L479.769 59.7901C477.754 57.3785 475.261 55.4803 472.293 54.0953L472.166 54.3672ZM479.539 59.9824L479.312 60.1782C481.302 62.4899 482.814 65.2053 483.844 68.3284L484.129 68.2344L484.414 68.1404C483.361 64.9483 481.812 62.1624 479.766 59.7867L479.539 59.9824ZM484.129 68.2344L483.845 68.3319C484.908 71.4233 485.44 74.7267 485.44 78.2441H485.74H486.04C486.04 74.6652 485.498 71.2955 484.413 68.1369L484.129 68.2344ZM485.74 78.2441H485.44C485.44 81.7297 484.924 85.0178 483.893 88.1102L484.178 88.2051L484.462 88.2999C485.515 85.1424 486.04 81.7898 486.04 78.2441H485.74ZM484.178 88.2051L483.893 88.1102C482.863 91.2006 481.352 93.9002 479.361 96.2124L479.588 96.4082L479.815 96.604C481.861 94.2287 483.409 91.4595 484.462 88.2999L484.178 88.2051ZM479.588 96.4082L479.359 96.2143C477.403 98.5233 474.981 100.353 472.088 101.703L472.215 101.975L472.342 102.246C475.309 100.862 477.802 98.9806 479.817 96.6021L479.588 96.4082ZM472.215 101.975L472.089 101.702C469.237 103.016 465.977 103.677 462.303 103.677V103.977V104.277C466.05 104.277 469.398 103.603 472.34 102.247L472.215 101.975ZM462.303 103.977V103.677C458.628 103.677 455.351 103.016 452.466 101.702L452.342 101.975L452.217 102.248C455.192 103.603 458.555 104.277 462.303 104.277V103.977ZM452.342 101.975L452.47 101.703C449.609 100.353 447.186 98.5232 445.196 96.2124L444.969 96.4082L444.741 96.604C446.788 98.9807 449.28 100.861 452.214 102.246L452.342 101.975ZM444.969 96.4082L445.198 96.2143C443.238 93.9018 441.743 91.2016 440.712 88.1102L440.428 88.2051L440.143 88.2999C441.196 91.4586 442.728 94.2272 444.74 96.6021L444.969 96.4082ZM440.428 88.2051L440.712 88.1102C439.682 85.0178 439.165 81.7297 439.165 78.2441H438.865H438.565C438.565 81.7898 439.091 85.1424 440.143 88.2999L440.428 88.2051ZM450.389 78.2441H450.089C450.089 80.4829 450.369 82.5939 450.93 84.5759L451.219 84.4941L451.507 84.4124C450.962 82.4881 450.689 80.4325 450.689 78.2441H450.389ZM451.219 84.4941L450.93 84.5759C451.491 86.5562 452.285 88.2959 453.315 89.7913L453.562 89.6211L453.81 89.4509C452.821 88.0166 452.053 86.3383 451.507 84.4124L451.219 84.4941ZM453.562 89.6211L453.318 89.795C454.383 91.2926 455.668 92.4784 457.172 93.3477L457.322 93.0879L457.472 92.8281C456.047 92.0046 454.825 90.8792 453.807 89.4472L453.562 89.6211ZM457.322 93.0879L457.172 93.3477C458.686 94.2224 460.383 94.6574 462.254 94.6574V94.3574V94.0574C460.479 94.0574 458.888 93.6461 457.472 92.8281L457.322 93.0879ZM462.254 94.3574V94.6574C464.125 94.6574 465.822 94.2224 467.336 93.3477L467.186 93.0879L467.035 92.8281C465.62 93.6461 464.028 94.0574 462.254 94.0574V94.3574ZM467.186 93.0879L467.333 93.3491C468.871 92.4801 470.173 91.294 471.239 89.795L470.994 89.6211L470.75 89.4472C469.732 90.8779 468.495 92.003 467.038 92.8267L467.186 93.0879ZM470.994 89.6211L471.239 89.795C472.303 88.2988 473.114 86.5578 473.675 84.5759L473.387 84.4941L473.098 84.4124C472.553 86.3367 471.769 88.0137 470.75 89.4472L470.994 89.6211ZM473.387 84.4941L473.675 84.5759C474.237 82.5939 474.517 80.4829 474.517 78.2441H474.217H473.917C473.917 80.4325 473.643 82.4881 473.098 84.4124L473.387 84.4941ZM474.217 78.2441H474.517C474.517 76.0054 474.237 73.8944 473.675 71.9124L473.387 71.9941L473.098 72.0759C473.643 74.0002 473.917 76.0558 473.917 78.2441H474.217ZM473.387 71.9941L473.676 71.9136C473.114 69.8993 472.303 68.1415 471.239 66.6445L470.994 66.8184L470.75 66.9922C471.768 68.4249 472.552 70.1176 473.098 72.0747L473.387 71.9941ZM470.994 66.8184L471.239 66.6445C470.173 65.1455 468.871 63.9594 467.333 63.0904L467.186 63.3516L467.038 63.6127C468.495 64.4365 469.732 65.5616 470.75 66.9922L470.994 66.8184ZM467.186 63.3516L467.34 63.0943C465.825 62.1855 464.127 61.7332 462.254 61.7332V62.0332V62.3332C464.026 62.3332 465.616 62.7598 467.031 63.6088L467.186 63.3516ZM462.254 62.0332V61.7332C460.38 61.7332 458.683 62.1855 457.168 63.0943L457.322 63.3516L457.477 63.6088C458.892 62.7598 460.482 62.3332 462.254 62.3332V62.0332ZM457.322 63.3516L457.172 63.0918C455.668 63.961 454.383 65.1468 453.318 66.6445L453.562 66.8184L453.807 66.9922C454.825 65.5602 456.047 64.4348 457.472 63.6113L457.322 63.3516ZM453.562 66.8184L453.315 66.6482C452.285 68.1443 451.491 69.9009 450.93 71.9136L451.219 71.9941L451.508 72.0747C452.054 70.116 452.822 68.4221 453.81 66.9886L453.562 66.8184ZM451.219 71.9941L450.93 71.9124C450.369 73.8944 450.089 76.0054 450.089 78.2441H450.389H450.689C450.689 76.0558 450.962 74.0002 451.507 72.0759L451.219 71.9941Z" fill="#1C272A" mask="url(#path-1-outside-1_7710_449)"/>
<path d="M69.8516 0L90.4016 15.1961L31.5396 94.7967L8.64549 100.849L10.9895 79.6006L69.8516 0Z" fill="url(#paint0_linear_7710_449)"/>
<rect x="37" y="44" width="105" height="75" rx="10" fill="#3ECEF0" fill-opacity="0.8"/>
<mask id="path-5-outside-2_7710_449" maskUnits="userSpaceOnUse" x="73" y="60" width="33" height="45" fill="black">
<rect fill="white" x="73" y="60" width="33" height="45"/>
<path d="M80.5801 88.7031C80.6777 90.1094 80.9609 91.3984 81.4297 92.5703C81.918 93.7227 82.5527 94.7188 83.334 95.5586C84.1152 96.3984 85.0332 97.0527 86.0879 97.5215C87.1426 97.9707 88.3047 98.1953 89.5742 98.1953C90.6875 98.1953 91.752 98.0781 92.7676 97.8438C93.8027 97.6094 94.7109 97.2285 95.4922 96.7012C96.2734 96.1738 96.8984 95.4902 97.3672 94.6504C97.8359 93.791 98.0703 92.7461 98.0703 91.5156C98.0703 90.4023 97.7285 89.4746 97.0449 88.7324C96.3809 87.9707 95.502 87.3066 94.4082 86.7402C93.3145 86.1738 92.0645 85.666 90.6582 85.2168C89.252 84.7676 87.8164 84.2988 86.3516 83.8105C84.9062 83.3223 83.4805 82.7754 82.0742 82.1699C80.668 81.5449 79.418 80.793 78.3242 79.9141C77.2305 79.0156 76.3418 77.9414 75.6582 76.6914C74.9941 75.4414 74.6621 73.9375 74.6621 72.1797C74.6621 70.3828 75.0137 68.8008 75.7168 67.4336C76.4199 66.0469 77.4062 64.8848 78.6758 63.9473C79.9648 63.0098 81.4883 62.3066 83.2461 61.8379C85.0234 61.3496 86.9668 61.1055 89.0762 61.1055C91.8887 61.1055 94.2227 61.5156 96.0781 62.3359C97.9531 63.1562 99.457 64.2207 100.59 65.5293C101.723 66.8184 102.543 68.2539 103.051 69.8359C103.559 71.418 103.861 72.9707 103.959 74.4941H96.8984C96.7812 73.1855 96.498 72.0527 96.0488 71.0957C95.6191 70.1387 95.0527 69.3477 94.3496 68.7227C93.6465 68.0977 92.8457 67.6387 91.9473 67.3457C91.0488 67.0332 90.0918 66.877 89.0762 66.877C88.1582 66.877 87.25 66.9746 86.3516 67.1699C85.4531 67.3457 84.6523 67.6484 83.9492 68.0781C83.2461 68.4883 82.6797 69.0352 82.25 69.7188C81.8203 70.3828 81.6055 71.2031 81.6055 72.1797C81.6055 73.3125 81.9375 74.2695 82.6016 75.0508C83.2852 75.8125 84.1738 76.4863 85.2676 77.0723C86.3613 77.6387 87.6113 78.1562 89.0176 78.625C90.4238 79.0742 91.8594 79.5527 93.3242 80.0605C94.7891 80.5488 96.2246 81.0957 97.6309 81.7012C99.0371 82.3066 100.287 83.0488 101.381 83.9277C102.475 84.8066 103.354 85.8613 104.018 87.0918C104.701 88.3223 105.043 89.7969 105.043 91.5156C105.043 93.6055 104.652 95.4316 103.871 96.9941C103.109 98.5566 102.035 99.8555 100.648 100.891C99.2812 101.926 97.6504 102.707 95.7559 103.234C93.8809 103.762 91.8203 104.025 89.5742 104.025C87.5625 104.025 85.6094 103.674 83.7148 102.971C81.8203 102.268 80.1211 101.252 78.6172 99.9238C77.1328 98.5957 75.9219 96.9941 74.9844 95.1191C74.0664 93.2246 73.5781 91.0859 73.5195 88.7031H80.5801Z"/>
</mask>
<path d="M80.5801 88.7031C80.6777 90.1094 80.9609 91.3984 81.4297 92.5703C81.918 93.7227 82.5527 94.7188 83.334 95.5586C84.1152 96.3984 85.0332 97.0527 86.0879 97.5215C87.1426 97.9707 88.3047 98.1953 89.5742 98.1953C90.6875 98.1953 91.752 98.0781 92.7676 97.8438C93.8027 97.6094 94.7109 97.2285 95.4922 96.7012C96.2734 96.1738 96.8984 95.4902 97.3672 94.6504C97.8359 93.791 98.0703 92.7461 98.0703 91.5156C98.0703 90.4023 97.7285 89.4746 97.0449 88.7324C96.3809 87.9707 95.502 87.3066 94.4082 86.7402C93.3145 86.1738 92.0645 85.666 90.6582 85.2168C89.252 84.7676 87.8164 84.2988 86.3516 83.8105C84.9062 83.3223 83.4805 82.7754 82.0742 82.1699C80.668 81.5449 79.418 80.793 78.3242 79.9141C77.2305 79.0156 76.3418 77.9414 75.6582 76.6914C74.9941 75.4414 74.6621 73.9375 74.6621 72.1797C74.6621 70.3828 75.0137 68.8008 75.7168 67.4336C76.4199 66.0469 77.4062 64.8848 78.6758 63.9473C79.9648 63.0098 81.4883 62.3066 83.2461 61.8379C85.0234 61.3496 86.9668 61.1055 89.0762 61.1055C91.8887 61.1055 94.2227 61.5156 96.0781 62.3359C97.9531 63.1562 99.457 64.2207 100.59 65.5293C101.723 66.8184 102.543 68.2539 103.051 69.8359C103.559 71.418 103.861 72.9707 103.959 74.4941H96.8984C96.7812 73.1855 96.498 72.0527 96.0488 71.0957C95.6191 70.1387 95.0527 69.3477 94.3496 68.7227C93.6465 68.0977 92.8457 67.6387 91.9473 67.3457C91.0488 67.0332 90.0918 66.877 89.0762 66.877C88.1582 66.877 87.25 66.9746 86.3516 67.1699C85.4531 67.3457 84.6523 67.6484 83.9492 68.0781C83.2461 68.4883 82.6797 69.0352 82.25 69.7188C81.8203 70.3828 81.6055 71.2031 81.6055 72.1797C81.6055 73.3125 81.9375 74.2695 82.6016 75.0508C83.2852 75.8125 84.1738 76.4863 85.2676 77.0723C86.3613 77.6387 87.6113 78.1562 89.0176 78.625C90.4238 79.0742 91.8594 79.5527 93.3242 80.0605C94.7891 80.5488 96.2246 81.0957 97.6309 81.7012C99.0371 82.3066 100.287 83.0488 101.381 83.9277C102.475 84.8066 103.354 85.8613 104.018 87.0918C104.701 88.3223 105.043 89.7969 105.043 91.5156C105.043 93.6055 104.652 95.4316 103.871 96.9941C103.109 98.5566 102.035 99.8555 100.648 100.891C99.2812 101.926 97.6504 102.707 95.7559 103.234C93.8809 103.762 91.8203 104.025 89.5742 104.025C87.5625 104.025 85.6094 103.674 83.7148 102.971C81.8203 102.268 80.1211 101.252 78.6172 99.9238C77.1328 98.5957 75.9219 96.9941 74.9844 95.1191C74.0664 93.2246 73.5781 91.0859 73.5195 88.7031H80.5801Z" fill="#BEF3FF"/>
<path d="M80.5801 88.7031L80.8794 88.6823L80.86 88.4031H80.5801V88.7031ZM81.4297 92.5703L81.1511 92.6818L81.1535 92.6874L81.4297 92.5703ZM86.0879 97.5215L85.966 97.7957L85.9703 97.7975L86.0879 97.5215ZM92.7676 97.8438L92.7013 97.5512L92.7001 97.5514L92.7676 97.8438ZM97.3672 94.6504L97.6292 94.7966L97.6306 94.794L97.3672 94.6504ZM97.0449 88.7324L96.8187 88.9296L96.8243 88.9357L97.0449 88.7324ZM94.4082 86.7402L94.5462 86.4738L94.4082 86.7402ZM86.3516 83.8105L86.2555 84.0948L86.2567 84.0951L86.3516 83.8105ZM82.0742 82.1699L81.9524 82.4441L81.9556 82.4455L82.0742 82.1699ZM78.3242 79.9141L78.1338 80.1459L78.1363 80.1479L78.3242 79.9141ZM75.6582 76.6914L75.3932 76.8322L75.395 76.8354L75.6582 76.6914ZM75.7168 67.4336L75.9836 67.5708L75.9844 67.5693L75.7168 67.4336ZM78.6758 63.9473L78.4993 63.7046L78.4976 63.7059L78.6758 63.9473ZM83.2461 61.8379L83.3234 62.1278L83.3256 62.1272L83.2461 61.8379ZM96.0781 62.3359L95.9568 62.6103L95.9579 62.6108L96.0781 62.3359ZM100.59 65.5293L100.363 65.7257L100.364 65.7273L100.59 65.5293ZM103.051 69.8359L102.765 69.9276L103.051 69.8359ZM103.959 74.4941V74.7941H104.279L104.258 74.4749L103.959 74.4941ZM96.8984 74.4941L96.5996 74.5209L96.6241 74.7941H96.8984V74.4941ZM96.0488 71.0957L95.7751 71.2186L95.7773 71.2232L96.0488 71.0957ZM91.9473 67.3457L91.8487 67.6291L91.8543 67.6309L91.9473 67.3457ZM86.3516 67.1699L86.4092 67.4644L86.4153 67.4631L86.3516 67.1699ZM83.9492 68.0781L84.1004 68.3373L84.1057 68.3341L83.9492 68.0781ZM82.25 69.7188L82.5019 69.8817L82.504 69.8784L82.25 69.7188ZM82.6016 75.0508L82.3729 75.2451L82.3783 75.2512L82.6016 75.0508ZM85.2676 77.0723L85.1259 77.3367L85.1296 77.3387L85.2676 77.0723ZM89.0176 78.625L88.9227 78.9096L88.9263 78.9108L89.0176 78.625ZM93.3242 80.0605L93.2259 80.344L93.2294 80.3451L93.3242 80.0605ZM101.381 83.9277L101.569 83.6939L101.381 83.9277ZM104.018 87.0918L103.754 87.2343L103.755 87.2375L104.018 87.0918ZM103.871 96.9941L103.603 96.86L103.601 96.8627L103.871 96.9941ZM100.648 100.891L100.469 100.65L100.467 100.651L100.648 100.891ZM95.7559 103.234L95.6754 102.945L95.6746 102.946L95.7559 103.234ZM78.6172 99.9238L78.4171 100.147L78.4186 100.149L78.6172 99.9238ZM74.9844 95.1191L74.7144 95.25L74.716 95.2533L74.9844 95.1191ZM73.5195 88.7031V88.4031H73.2121L73.2196 88.7105L73.5195 88.7031ZM80.2808 88.7239C80.3804 90.1577 80.6695 91.4777 81.1511 92.6817L81.7082 92.4589C81.2523 91.3191 80.9751 90.0611 80.8794 88.6823L80.2808 88.7239ZM81.1535 92.6874C81.6541 93.8689 82.3072 94.8953 83.1143 95.7629L83.5536 95.3543C82.7983 94.5422 82.1818 93.5764 81.7059 92.4533L81.1535 92.6874ZM83.1143 95.7629C83.9233 96.6326 84.8746 97.3105 85.966 97.7956L86.2097 97.2473C85.1918 96.7949 84.3072 96.1643 83.5536 95.3543L83.1143 95.7629ZM85.9703 97.7975C87.066 98.2642 88.2686 98.4953 89.5742 98.4953V97.8953C88.3407 97.8953 87.2192 97.6772 86.2054 97.2455L85.9703 97.7975ZM89.5742 98.4953C90.7087 98.4953 91.7958 98.3759 92.835 98.1361L92.7001 97.5514C91.7081 97.7804 90.6663 97.8953 89.5742 97.8953V98.4953ZM92.8338 98.1363C93.9007 97.8948 94.8443 97.5005 95.66 96.9498L95.3243 96.4525C94.5776 96.9566 93.7047 97.324 92.7013 97.5512L92.8338 98.1363ZM95.66 96.9498C96.4811 96.3956 97.138 95.6766 97.6291 94.7966L97.1052 94.5042C96.6589 95.3038 96.0658 95.952 95.3243 96.4525L95.66 96.9498ZM97.6306 94.794C98.1288 93.8807 98.3703 92.7836 98.3703 91.5156H97.7703C97.7703 92.7086 97.5431 93.7013 97.1038 94.5067L97.6306 94.794ZM98.3703 91.5156C98.3703 90.3355 98.0056 89.3327 97.2656 88.5292L96.8243 88.9357C97.4514 89.6166 97.7703 90.4692 97.7703 91.5156H98.3703ZM97.2711 88.5353C96.5774 87.7397 95.6663 87.0539 94.5462 86.4738L94.2702 87.0066C95.3376 87.5594 96.1843 88.2017 96.8188 88.9296L97.2711 88.5353ZM94.5462 86.4738C93.4348 85.8983 92.1688 85.3844 90.7495 84.931L90.5669 85.5026C91.9601 85.9476 93.1941 86.4493 94.2702 87.0066L94.5462 86.4738ZM90.7495 84.931C89.3445 84.4822 87.9101 84.0138 86.4464 83.5259L86.2567 84.0951C87.7227 84.5838 89.1594 85.053 90.5669 85.5026L90.7495 84.931ZM86.4476 83.5263C85.01 83.0406 83.5917 82.4967 82.1929 81.8944L81.9556 82.4455C83.3692 83.0541 84.8025 83.6039 86.2555 84.0948L86.4476 83.5263ZM82.1961 81.8958C80.8112 81.2803 79.5838 80.5414 78.5121 79.6802L78.1363 80.1479C79.2521 81.0445 80.5247 81.8096 81.9524 82.4441L82.1961 81.8958ZM78.5146 79.6822C77.4508 78.8083 76.5867 77.764 75.9214 76.5475L75.395 76.8354C76.0969 78.1188 77.0102 79.2229 78.1338 80.1459L78.5146 79.6822ZM75.9231 76.5507C75.287 75.3533 74.9621 73.9001 74.9621 72.1797H74.3621C74.3621 73.9749 74.7013 75.5296 75.3933 76.8322L75.9231 76.5507ZM74.9621 72.1797C74.9621 70.4225 75.3057 68.8889 75.9836 67.5708L75.45 67.2964C74.7217 68.7126 74.3621 70.3431 74.3621 72.1797H74.9621ZM75.9844 67.5693C76.666 66.2249 77.6215 65.0988 78.854 64.1886L78.4976 63.7059C77.191 64.6708 76.1738 65.8689 75.4492 67.2979L75.9844 67.5693ZM78.8522 64.1899C80.1075 63.2769 81.5963 62.5883 83.3234 62.1278L83.1688 61.548C81.3803 62.025 79.8222 62.7426 78.4993 63.7046L78.8522 64.1899ZM83.3256 62.1272C85.0736 61.6469 86.9899 61.4055 89.0762 61.4055V60.8055C86.9437 60.8055 84.9733 61.0523 83.1666 61.5486L83.3256 62.1272ZM89.0762 61.4055C91.862 61.4055 94.1513 61.8121 95.9568 62.6103L96.1994 62.0616C94.294 61.2192 91.9153 60.8055 89.0762 60.8055V61.4055ZM95.9579 62.6108C97.7994 63.4164 99.2643 64.4564 100.363 65.7256L100.817 65.3329C99.6497 63.985 98.1069 62.8961 96.1984 62.0611L95.9579 62.6108ZM100.364 65.7273C101.471 66.9865 102.27 68.3861 102.765 69.9276L103.336 69.7442C102.816 68.1217 101.974 66.6502 100.815 65.3313L100.364 65.7273ZM102.765 69.9276C103.266 71.4882 103.564 73.0166 103.66 74.5133L104.258 74.4749C104.159 72.9248 103.851 71.3477 103.336 69.7442L102.765 69.9276ZM103.959 74.1941H96.8984V74.7941H103.959V74.1941ZM97.1972 74.4674C97.0777 73.132 96.7876 71.9636 96.3204 70.9682L95.7773 71.2232C96.2085 72.1418 96.4848 73.2391 96.5996 74.5209L97.1972 74.4674ZM96.3225 70.9728C95.8775 69.9816 95.2872 69.1547 94.5489 68.4984L94.1503 68.9469C94.8183 69.5406 95.3608 70.2957 95.7751 71.2186L96.3225 70.9728ZM94.5489 68.4984C93.8148 67.8459 92.9778 67.3662 92.0403 67.0605L91.8543 67.6309C92.7136 67.9111 93.4782 68.3494 94.1503 68.9469L94.5489 68.4984ZM92.0458 67.0624C91.1136 66.7381 90.1231 66.577 89.0762 66.577V67.177C90.0605 67.177 90.984 67.3283 91.8487 67.6291L92.0458 67.0624ZM89.0762 66.577C88.1367 66.577 87.2072 66.6769 86.2878 66.8768L86.4153 67.4631C87.2928 67.2723 88.1797 67.177 89.0762 67.177V66.577ZM86.294 66.8755C85.3644 67.0574 84.5295 67.3719 83.7928 67.8221L84.1057 68.3341C84.7752 67.9249 85.5418 67.634 86.4092 67.4643L86.294 66.8755ZM83.7981 67.819C83.0535 68.2533 82.4517 68.8342 81.996 69.5591L82.504 69.8784C82.9077 69.2361 83.4387 68.7232 84.1004 68.3373L83.7981 67.819ZM81.9981 69.5558C81.5304 70.2787 81.3055 71.1589 81.3055 72.1797H81.9055C81.9055 71.2473 82.1103 70.487 82.5019 69.8817L81.9981 69.5558ZM81.3055 72.1797C81.3055 73.3757 81.6579 74.4038 82.373 75.2451L82.8301 74.8565C82.2171 74.1353 81.9055 73.2493 81.9055 72.1797H81.3055ZM82.3783 75.2512C83.0895 76.0437 84.0078 76.7377 85.1259 77.3367L85.4092 76.8078C84.3399 76.235 83.4808 75.5813 82.8248 74.8504L82.3783 75.2512ZM85.1296 77.3387C86.2397 77.9135 87.5045 78.4369 88.9227 78.9096L89.1124 78.3404C87.7181 77.8756 86.483 77.3638 85.4055 76.8059L85.1296 77.3387ZM88.9263 78.9108C90.3301 79.3592 91.7633 79.8369 93.226 80.344L93.4225 79.7771C91.9554 79.2685 90.5176 78.7892 89.1089 78.3392L88.9263 78.9108ZM93.2294 80.3451C94.6862 80.8308 96.1138 81.3746 97.5122 81.9767L97.7495 81.4256C96.3354 80.8168 94.8919 80.2669 93.4191 79.7759L93.2294 80.3451ZM97.5122 81.9767C98.8958 82.5724 100.122 83.3011 101.193 84.1616L101.569 83.6939C100.452 82.7965 99.1784 82.0408 97.7495 81.4256L97.5122 81.9767ZM101.193 84.1616C102.256 85.0155 103.109 86.0392 103.754 87.2343L104.282 86.9493C103.598 85.6835 102.694 84.5978 101.569 83.6939L101.193 84.1616ZM103.755 87.2375C104.409 88.4145 104.743 89.8367 104.743 91.5156H105.343C105.343 89.7571 104.993 88.23 104.28 86.9461L103.755 87.2375ZM104.743 91.5156C104.743 93.568 104.359 95.3465 103.603 96.86L104.139 97.1283C104.945 95.5167 105.343 93.643 105.343 91.5156H104.743ZM103.601 96.8627C102.861 98.3824 101.817 99.6438 100.469 100.65L100.828 101.131C102.253 100.067 103.358 98.7309 104.141 97.1256L103.601 96.8627ZM100.467 100.651C99.1344 101.661 97.5388 102.427 95.6754 102.945L95.8363 103.523C97.7619 102.987 99.4281 102.191 100.83 101.13L100.467 100.651ZM95.6746 102.946C93.8297 103.464 91.797 103.725 89.5742 103.725V104.325C91.8437 104.325 93.932 104.059 95.8371 103.523L95.6746 102.946ZM89.5742 103.725C87.5983 103.725 85.6805 103.38 83.8192 102.689L83.6105 103.252C85.5382 103.967 87.5267 104.325 89.5742 104.325V103.725ZM83.8192 102.689C81.959 101.999 80.2918 101.002 78.8158 99.699L78.4186 100.149C79.9504 101.501 81.6816 102.536 83.6105 103.252L83.8192 102.689ZM78.8172 99.7003C77.3625 98.3987 76.1742 96.8279 75.2527 94.985L74.716 95.2533C75.6696 97.1603 76.9031 98.7927 78.4171 100.147L78.8172 99.7003ZM75.2544 94.9883C74.3574 93.1371 73.8771 91.0414 73.8194 88.6958L73.2196 88.7105C73.2791 91.1305 73.7754 93.3121 74.7144 95.25L75.2544 94.9883ZM73.5195 89.0031H80.5801V88.4031H73.5195V89.0031Z" fill="#BEF3FF" mask="url(#path-5-outside-2_7710_449)"/>
<defs>
<linearGradient id="paint0_linear_7710_449" x1="4.61176" y1="74.5473" x2="85.4917" y2="45.2476" gradientUnits="userSpaceOnUse">
<stop stop-color="#29BBFE"/>
<stop offset="1" stop-color="#008BF6"/>
</linearGradient>
</defs>
</svg>
